<svg width="36" height="36" viewBox="0 0 36 36" fill="none" xmlns="http://www.w3.org/2000/svg">
<path d="M27 9.5H24C24 8.70435 23.6839 7.94129 23.1213 7.37868C22.5587 6.81607 21.7956 6.5 21 6.5H15C14.2044 6.5 13.4413 6.81607 12.8787 7.37868C12.3161 7.94129 12 8.70435 12 9.5H9C8.73478 9.5 8.48043 9.60536 8.29289 9.79289C8.10536 9.98043 8 10.2348 8 10.5C8 10.7652 8.10536 11.0196 8.29289 11.2071C8.48043 11.3946 8.73478 11.5 9 11.5H27C27.2652 11.5 27.5196 11.3946 27.7071 11.2071C27.8946 11.0196 28 10.7652 28 10.5C28 10.2348 27.8946 9.98043 27.7071 9.79289C27.5196 9.60536 27.2652 9.5 27 9.5Z" fill="black"/>
<path d="M16 25.5C16.2652 25.5 16.5196 25.3946 16.7071 25.2071C16.8946 25.0196 17 24.7652 17 24.5V18.5C17 18.2348 16.8946 17.9804 16.7071 17.7929C16.5196 17.6054 16.2652 17.5 16 17.5C15.7348 17.5 15.4804 17.6054 15.2929 17.7929C15.1054 17.9804 15 18.2348 15 18.5V24.5C15 24.7652 15.1054 25.0196 15.2929 25.2071C15.4804 25.3946 15.7348 25.5 16 25.5Z" fill="black"/>
<path d="M20 25.5C20.2652 25.5 20.5196 25.3946 20.7071 25.2071C20.8946 25.0196 21 24.7652 21 24.5V18.5C21 18.2348 20.8946 17.9804 20.7071 17.7929C20.5196 17.6054 20.2652 17.5 20 17.5C19.7348 17.5 19.4804 17.6054 19.2929 17.7929C19.1054 17.9804 19 18.2348 19 18.5V24.5C19 24.7652 19.1054 25.0196 19.2929 25.2071C19.4804 25.3946 19.7348 25.5 20 25.5Z" fill="black"/>
<path d="M23 29.5C23.7956 29.5 24.5587 29.1839 25.1213 28.6213C25.6839 28.0587 26 27.2956 26 26.5V14.5C26 14.2348 25.8946 13.9804 25.7071 13.7929C25.5196 13.6054 25.2652 13.5 25 13.5H11C10.7348 13.5 10.4804 13.6054 10.2929 13.7929C10.1054 13.9804 10 14.2348 10 14.5V26.5C10 27.2956 10.3161 28.0587 10.8787 28.6213C11.4413 29.1839 12.2044 29.5 13 29.5H23ZM12 26.5V15.5H24V26.5C24 26.7652 23.8946 27.0196 23.7071 27.2071C23.5196 27.3946 23.2652 27.5 23 27.5H13C12.7348 27.5 12.4804 27.3946 12.2929 27.2071C12.1054 27.0196 12 26.7652 12 26.5Z" fill="black"/>
</svg>
