<svg width="36" height="36" viewBox="0 0 36 36" fill="none" xmlns="http://www.w3.org/2000/svg">
<path d="M18 26.5C18 25.8078 17.7947 25.1311 17.4101 24.5555C17.0256 23.9799 16.4789 23.5313 15.8394 23.2664C15.1999 23.0015 14.4961 22.9322 13.8172 23.0673C13.1382 23.2023 12.5146 23.5356 12.0251 24.0251C11.5356 24.5146 11.2023 25.1383 11.0673 25.8172C10.9322 26.4961 11.0015 27.1999 11.2664 27.8394C11.5313 28.4789 11.9799 29.0256 12.5555 29.4101C13.1311 29.7947 13.8078 30 14.5 30C15.4283 30 16.3185 29.6313 16.9749 28.9749C17.6313 28.3185 18 27.4283 18 26.5ZM13 26.5C13 26.2033 13.088 25.9133 13.2528 25.6666C13.4176 25.42 13.6519 25.2277 13.926 25.1142C14.2001 25.0007 14.5017 24.9709 14.7926 25.0288C15.0836 25.0867 15.3509 25.2296 15.5607 25.4393C15.7704 25.6491 15.9133 25.9164 15.9712 26.2074C16.0291 26.4983 15.9994 26.7999 15.8858 27.074C15.7723 27.3481 15.58 27.5824 15.3334 27.7472C15.0867 27.912 14.7967 28 14.5 28C14.1022 28 13.7206 27.842 13.4393 27.5607C13.158 27.2794 13 26.8978 13 26.5Z" fill="black"/>
<path d="M28 26.5C28 25.8078 27.7947 25.1311 27.4101 24.5555C27.0256 23.9799 26.4789 23.5313 25.8394 23.2664C25.1999 23.0015 24.4961 22.9322 23.8172 23.0673C23.1383 23.2023 22.5146 23.5356 22.0251 24.0251C21.5356 24.5146 21.2023 25.1383 21.0673 25.8172C20.9322 26.4961 21.0015 27.1999 21.2664 27.8394C21.5313 28.4789 21.9799 29.0256 22.5555 29.4101C23.1311 29.7947 23.8078 30 24.5 30C25.4283 30 26.3185 29.6313 26.9749 28.9749C27.6313 28.3185 28 27.4283 28 26.5ZM24.5 28C24.2033 28 23.9133 27.912 23.6666 27.7472C23.42 27.5824 23.2277 27.3481 23.1142 27.074C23.0007 26.7999 22.9709 26.4983 23.0288 26.2074C23.0867 25.9164 23.2296 25.6491 23.4393 25.4393C23.6491 25.2296 23.9164 25.0867 24.2074 25.0288C24.4983 24.9709 24.7999 25.0007 25.074 25.1142C25.3481 25.2277 25.5824 25.42 25.7472 25.6666C25.912 25.9133 26 26.2033 26 26.5C26 26.8978 25.842 27.2794 25.5607 27.5607C25.2794 27.842 24.8978 28 24.5 28Z" fill="black"/>
<path d="M5 10H8.36L12.05 21.07C12.1171 21.2686 12.2449 21.4411 12.4154 21.5632C12.5858 21.6852 12.7904 21.7505 13 21.75H26C26.2096 21.7505 26.4142 21.6852 26.5846 21.5632C26.7551 21.4411 26.8829 21.2686 26.95 21.07L29.95 12.07C29.9996 11.9196 30.0128 11.7596 29.9884 11.6031C29.9641 11.4467 29.9029 11.2982 29.81 11.17C29.718 11.0408 29.5965 10.9353 29.4557 10.8622C29.3148 10.7892 29.1587 10.7507 29 10.75H19.5C19.2348 10.75 18.9804 10.8554 18.7929 11.0429C18.6054 11.2304 18.5 11.4848 18.5 11.75C18.5 12.0152 18.6054 12.2696 18.7929 12.4571C18.9804 12.6446 19.2348 12.75 19.5 12.75H27.61L25.28 19.75H13.72L10 8.68C9.93462 8.48616 9.81136 8.31704 9.64685 8.19544C9.48234 8.07385 9.28449 8.00563 9.08 8H5C4.73478 8 4.48043 8.10536 4.29289 8.29289C4.10536 8.48043 4 8.73478 4 9C4 9.26522 4.10536 9.51957 4.29289 9.70711C4.48043 9.89464 4.73478 10 5 10Z" fill="black"/>
</svg>
