<svg width="78" height="36" viewBox="0 0 78 36" fill="none" xmlns="http://www.w3.org/2000/svg">
<path d="M22.56 19.75C21.8118 20.0948 21.084 20.4821 20.38 20.91C19.8941 21.2719 19.433 21.6662 19 22.09C18.0712 21.0645 16.9081 20.2788 15.61 19.8C15.5053 19.7633 15.3939 19.7497 15.2834 19.76C15.173 19.7704 15.0661 19.8045 14.97 19.86C14.73 20.14 14.97 20.33 15.23 20.48C15.7398 20.7794 16.1813 21.1824 16.5257 21.663C16.8702 22.1436 17.1101 22.691 17.23 23.27C17.5638 25.349 17.5062 27.4721 17.06 29.53C16.9472 30.0428 16.723 30.5245 16.4033 30.941C16.0836 31.3575 15.6762 31.6985 15.21 31.94C15.8808 32.0438 16.566 32.0028 17.2197 31.82C17.8734 31.6372 18.4804 31.3167 19 30.88C19.4906 31.3109 20.0667 31.6334 20.6905 31.8264C21.3143 32.0194 21.9718 32.0785 22.62 32C22.62 32 22.62 31.9 22.62 31.89C22.1318 31.5876 21.7169 31.1804 21.4056 30.6978C21.0943 30.2153 20.8942 29.6695 20.82 29.1C20.5302 27.284 20.4898 25.4369 20.7 23.61C20.767 23.0185 20.9651 22.4495 21.28 21.9443C21.5948 21.4391 22.0185 21.0106 22.52 20.69C22.6601 20.6165 22.7883 20.5221 22.9 20.41C22.9887 20.2601 23.056 20.0985 23.1 19.93C22.91 19.85 22.68 19.69 22.56 19.75Z" fill="black"/>
<path d="M25.23 16.79C23.8 15.94 21.53 16.79 21.23 18.34C21.5905 18.5251 21.9861 18.6318 22.3908 18.653C22.7955 18.6742 23.2001 18.6095 23.578 18.463C23.9559 18.3166 24.2984 18.0918 24.5832 17.8035C24.8679 17.5151 25.0884 17.1697 25.23 16.79Z" fill="black"/>
<path d="M16.78 18.35C16.44 16.82 14.34 15.99 12.78 16.78C12.9248 17.1575 13.1466 17.5007 13.4313 17.7877C13.7161 18.0747 14.0575 18.2992 14.4339 18.4469C14.8102 18.5946 15.2132 18.6623 15.6171 18.6456C16.0211 18.6289 16.4171 18.5282 16.78 18.35Z" fill="black"/>
<path d="M24.54 19.41C24.7367 19.7156 24.9999 19.9727 25.3099 20.1622C25.62 20.3516 25.9689 20.4685 26.3305 20.5041C26.6922 20.5397 27.0572 20.4931 27.3982 20.3677C27.7393 20.2423 28.0476 20.0414 28.3 19.78C28.1073 19.4697 27.8457 19.2079 27.5355 19.0149C27.2253 18.8219 26.8749 18.7029 26.5113 18.6672C26.1477 18.6314 25.7808 18.6798 25.439 18.8086C25.0971 18.9374 24.7895 19.1432 24.54 19.41Z" fill="black"/>
<path d="M12.57 14.91C12.4732 14.5622 12.2988 14.2409 12.0601 13.9701C11.8213 13.6994 11.5243 13.4862 11.1913 13.3467C10.8584 13.2072 10.4981 13.1449 10.1377 13.1645C9.77718 13.1841 9.42584 13.2852 9.11 13.46C9.20164 13.8112 9.37305 14.1365 9.6109 14.4107C9.84875 14.6848 10.1466 14.9005 10.4814 15.0407C10.8161 15.181 11.1787 15.2422 11.541 15.2195C11.9032 15.1969 12.2554 15.0909 12.57 14.91Z" fill="black"/>
<path d="M13.46 19.42C13.2132 19.1532 12.9087 18.9464 12.5696 18.8156C12.2306 18.6847 11.8661 18.6333 11.504 18.6651C11.142 18.697 10.7921 18.8113 10.4811 18.9994C10.1701 19.1874 9.90636 19.4442 9.71 19.75C9.95966 20.0115 10.2649 20.2134 10.6032 20.3409C10.9415 20.4684 11.3042 20.5181 11.6643 20.4864C12.0245 20.4547 12.3728 20.3424 12.6837 20.1578C12.9945 19.9732 13.2598 19.7211 13.46 19.42Z" fill="black"/>
<path d="M13.2 12C13.2233 11.6416 13.1641 11.2825 13.027 10.9505C12.8899 10.6185 12.6786 10.3224 12.4091 10.0848C12.1397 9.84726 11.8194 9.67463 11.4729 9.58018C11.1263 9.48573 10.7627 9.47199 10.41 9.54C10.3847 9.89897 10.4424 10.2589 10.5789 10.5919C10.7153 10.9249 10.9267 11.222 11.1966 11.46C11.4665 11.698 11.7877 11.8705 12.1352 11.9642C12.4826 12.0578 12.847 12.0701 13.2 12Z" fill="black"/>
<path d="M28.92 13.49C28.6073 13.3088 28.2572 13.2015 27.8966 13.1764C27.536 13.1512 27.1745 13.2089 26.8396 13.345C26.5047 13.481 26.2054 13.6919 25.9646 13.9614C25.7237 14.2309 25.5477 14.552 25.45 14.9C25.7623 15.0833 26.1126 15.1922 26.4738 15.2184C26.835 15.2446 27.1973 15.1873 27.5328 15.0509C27.8683 14.9146 28.1679 14.7029 28.4084 14.4323C28.649 14.1616 28.824 13.8392 28.92 13.49Z" fill="black"/>
<path d="M27.62 9.55C27.2672 9.47842 26.9026 9.48921 26.5547 9.58153C26.2067 9.67384 25.8848 9.8452 25.6138 10.0823C25.3429 10.3193 25.1304 10.6157 24.9927 10.9483C24.855 11.2809 24.7959 11.6408 24.82 12C25.1725 12.0695 25.5363 12.0572 25.8834 11.9641C26.2304 11.871 26.5515 11.6995 26.8219 11.4629C27.0923 11.2263 27.3049 10.9308 27.4433 10.5992C27.5816 10.2676 27.6421 9.90865 27.62 9.55Z" fill="black"/>
<path d="M19.6 13.44C19.2705 13.5753 18.9756 13.7829 18.737 14.0474C18.4984 14.3119 18.3222 14.6266 18.2214 14.9682C18.1207 15.3099 18.0979 15.6698 18.1547 16.0215C18.2116 16.3731 18.3467 16.7075 18.55 17C18.8808 16.8662 19.1771 16.6594 19.4168 16.3951C19.6565 16.1307 19.8334 15.8157 19.9343 15.4735C20.0353 15.1312 20.0576 14.7706 19.9997 14.4185C19.9419 14.0664 19.8052 13.7319 19.6 13.44Z" fill="black"/>
<path d="M16 6.26C15.7568 6.51785 15.5773 6.82907 15.476 7.16875C15.3746 7.50842 15.3542 7.86711 15.4165 8.21608C15.4787 8.56505 15.6217 8.89459 15.8342 9.17833C16.0467 9.46206 16.3226 9.69209 16.64 9.85C16.8832 9.59216 17.0627 9.28093 17.164 8.94125C17.2654 8.60158 17.2858 8.24289 17.2235 7.89392C17.1613 7.54496 17.0183 7.21541 16.8058 6.93167C16.5933 6.64794 16.3174 6.41791 16 6.26Z" fill="black"/>
<path d="M30.34 16.77C30.1021 16.5061 29.8065 16.3007 29.4762 16.1697C29.1459 16.0387 28.7899 15.9857 28.4358 16.0147C28.0817 16.0437 27.739 16.1541 27.4345 16.3371C27.13 16.5201 26.8718 16.7709 26.68 17.07C26.92 17.3302 27.2161 17.5323 27.5459 17.661C27.8756 17.7897 28.2304 17.8415 28.5832 17.8126C28.936 17.7837 29.2775 17.6748 29.5819 17.4941C29.8864 17.3135 30.1456 17.0658 30.34 16.77Z" fill="black"/>
<path d="M7.68 16.78C7.87607 17.0733 8.13569 17.3188 8.43958 17.4981C8.74346 17.6774 9.08383 17.7859 9.4354 17.8157C9.78698 17.8455 10.1408 17.7957 10.4705 17.6701C10.8002 17.5444 11.0974 17.3462 11.34 17.09C11.1504 16.7886 10.8934 16.5353 10.5892 16.3501C10.2851 16.1649 9.94208 16.0529 9.58726 16.0229C9.23243 15.9928 8.87548 16.0455 8.54451 16.1769C8.21354 16.3083 7.9176 16.5148 7.68 16.78Z" fill="black"/>
<path d="M22.05 6.24C21.7341 6.40025 21.4594 6.63132 21.2474 6.91518C21.0355 7.19904 20.892 7.52803 20.8281 7.87648C20.7642 8.22494 20.7817 8.58344 20.8792 8.92403C20.9766 9.26462 21.1514 9.57809 21.39 9.84C21.709 9.68282 21.9869 9.45318 22.2013 9.16944C22.4157 8.8857 22.5608 8.55573 22.625 8.20591C22.6891 7.85609 22.6705 7.49611 22.5707 7.15476C22.4708 6.8134 22.2925 6.50014 22.05 6.24Z" fill="black"/>
<path d="M18.79 8.6C18.5836 8.88535 18.4445 9.2138 18.3832 9.56064C18.322 9.90748 18.3402 10.2637 18.4364 10.6025C18.5327 10.9413 18.7045 11.2539 18.9389 11.5167C19.1734 11.7795 19.4644 11.9858 19.79 12.12C19.9945 11.834 20.132 11.5057 20.1922 11.1593C20.2524 10.8129 20.2338 10.4574 20.1377 10.1192C20.0416 9.78098 19.8706 9.46878 19.6372 9.20577C19.4039 8.94276 19.1143 8.73571 18.79 8.6Z" fill="black"/>
<path d="M17.55 13C17.61 11.61 16.55 10.66 14.89 10.63C14.51 11.85 16 13.16 17.55 13Z" fill="black"/>
<path d="M16.52 15.55C16.52 14.22 15.23 13.32 13.66 13.55C13.6826 13.884 13.7797 14.2088 13.9444 14.5003C14.109 14.7919 14.3368 15.0428 14.6112 15.2347C14.8856 15.4265 15.1995 15.5545 15.5298 15.609C15.8601 15.6636 16.1985 15.6434 16.52 15.55Z" fill="black"/>
<path d="M24.35 13.58C22.9 13.25 21.35 14.33 21.51 15.58C22.7 16 24.46 14.89 24.35 13.58Z" fill="black"/>
<path d="M23.64 10.32C22.25 10.32 20.98 11.85 21.47 12.74C21.7812 12.7559 22.092 12.702 22.3797 12.5823C22.6674 12.4626 22.9247 12.28 23.1327 12.048C23.3407 11.816 23.4942 11.5404 23.582 11.2415C23.6698 10.9425 23.6896 10.6276 23.64 10.32Z" fill="black"/>
<path d="M8 14.85C7.87882 14.5765 7.69476 14.3354 7.46281 14.1465C7.23085 13.9575 6.95756 13.826 6.66517 13.7627C6.37278 13.6993 6.06957 13.7059 5.78021 13.7819C5.49085 13.8579 5.22353 14.0012 5 14.2C5.13588 14.4593 5.32703 14.6856 5.55996 14.863C5.79289 15.0403 6.06191 15.1644 6.34803 15.2264C6.63415 15.2884 6.9304 15.2868 7.21584 15.2218C7.50129 15.1567 7.76897 15.0298 8 14.85Z" fill="black"/>
<path d="M7 10.33C7.03077 10.6235 7.12946 10.9057 7.28826 11.1544C7.44705 11.4031 7.66159 11.6114 7.91486 11.7627C8.16812 11.9141 8.45317 12.0044 8.7474 12.0265C9.04163 12.0486 9.33697 12.0019 9.61 11.89C9.58331 11.5947 9.48714 11.3099 9.32937 11.0589C9.17159 10.8078 8.95667 10.5976 8.70216 10.4455C8.44765 10.2934 8.16076 10.2036 7.86494 10.1836C7.56911 10.1635 7.27273 10.2137 7 10.33Z" fill="black"/>
<path d="M29.5 18.77C29.6533 19.0139 29.8574 19.2218 30.0985 19.3795C30.3395 19.5372 30.6118 19.641 30.8967 19.6837C31.1816 19.7264 31.4723 19.7071 31.749 19.6271C32.0257 19.5471 32.2819 19.4082 32.5 19.22C32.3568 18.9647 32.1572 18.7455 31.9163 18.5792C31.6754 18.4129 31.3997 18.3038 31.1102 18.2604C30.8207 18.217 30.5251 18.2403 30.2461 18.3287C29.967 18.417 29.7118 18.5679 29.5 18.77Z" fill="black"/>
<path d="M5.45 19.19C5.65946 19.391 5.91137 19.5425 6.18716 19.6332C6.46295 19.724 6.75559 19.7516 7.0435 19.7142C7.33141 19.6768 7.60724 19.5752 7.85067 19.417C8.0941 19.2588 8.29891 19.0479 8.45 18.8C8.24417 18.5916 7.99296 18.4336 7.71597 18.3384C7.43899 18.2432 7.14374 18.2133 6.85328 18.251C6.56283 18.2888 6.28504 18.3932 6.04161 18.5561C5.79818 18.719 5.59571 18.9359 5.45 19.19Z" fill="black"/>
<path d="M18 19.35C18 19.6152 18.1054 19.8696 18.2929 20.0571C18.4804 20.2446 18.7348 20.35 19 20.35C19.2652 20.35 19.5196 20.2446 19.7071 20.0571C19.8946 19.8696 20 19.6152 20 19.35C20 19.0848 19.8946 18.8304 19.7071 18.6429C19.5196 18.4554 19.2652 18.35 19 18.35C18.7387 18.3622 18.4914 18.4714 18.3064 18.6564C18.1214 18.8414 18.0122 19.0887 18 19.35Z" fill="black"/>
<path d="M31 10.33C30.7271 10.2185 30.432 10.1716 30.1379 10.1932C29.8439 10.2147 29.5588 10.3041 29.305 10.4542C29.0512 10.6043 28.8357 10.8112 28.6752 11.0586C28.5147 11.3059 28.4137 11.5871 28.38 11.88C28.6525 11.9982 28.9491 12.0501 29.2455 12.0316C29.5419 12.0131 29.8298 11.9245 30.0854 11.7733C30.341 11.6221 30.5572 11.4125 30.7161 11.1616C30.8751 10.9107 30.9724 10.6257 31 10.33Z" fill="black"/>
<path d="M19.29 4C19.0482 4.17741 18.8515 4.40928 18.716 4.67683C18.5805 4.94437 18.5098 5.24008 18.5098 5.54C18.5098 5.83992 18.5805 6.13563 18.716 6.40317C18.8515 6.67072 19.0482 6.90259 19.29 7.08C19.5165 6.89233 19.6988 6.65702 19.8239 6.39083C19.949 6.12464 20.0139 5.83413 20.0139 5.54C20.0139 5.24587 19.949 4.95536 19.8239 4.68917C19.6988 4.42298 19.5165 4.18767 19.29 4Z" fill="black"/>
<path d="M25.93 6.82C25.6379 6.83098 25.3522 6.90851 25.0946 7.04667C24.837 7.18484 24.6143 7.38001 24.4436 7.61728C24.2729 7.85456 24.1586 8.12768 24.1094 8.41583C24.0603 8.70398 24.0776 8.99955 24.16 9.28C24.4566 9.2815 24.7492 9.21207 25.0135 9.07749C25.2778 8.94291 25.506 8.74708 25.6792 8.50635C25.8525 8.26561 25.9656 7.98694 26.0092 7.69359C26.0528 7.40025 26.0257 7.10072 25.93 6.82Z" fill="black"/>
<path d="M23.78 21.4C23.805 21.6928 23.8979 21.9758 24.0514 22.2264C24.2049 22.477 24.4148 22.6884 24.6643 22.8437C24.9137 22.999 25.196 23.094 25.4886 23.1212C25.7813 23.1483 26.0762 23.1068 26.35 23C26.327 22.7063 26.2354 22.4221 26.0824 22.1703C25.9294 21.9186 25.7194 21.7063 25.4693 21.5506C25.2192 21.3949 24.936 21.3001 24.6426 21.274C24.3492 21.2478 24.0537 21.291 23.78 21.4Z" fill="black"/>
<path d="M12.09 6.79C12.0128 7.04737 11.9882 7.31766 12.0177 7.58474C12.0472 7.85182 12.1303 8.11021 12.2619 8.34449C12.3935 8.57876 12.5709 8.78412 12.7837 8.94829C12.9964 9.11246 13.24 9.23207 13.5 9.3C13.83 9.36 13.93 9.23 13.95 8.91C13.9829 8.38259 13.8058 7.86357 13.4573 7.46635C13.1088 7.06912 12.6172 6.82596 12.09 6.79Z" fill="black"/>
<path d="M13.83 21.27C13.5728 21.2337 13.3109 21.2503 13.0603 21.3187C12.8097 21.3871 12.5756 21.5059 12.3725 21.6678C12.1694 21.8297 12.0015 22.0314 11.8789 22.2605C11.7564 22.4895 11.6819 22.7412 11.66 23C12.151 23.1761 12.6914 23.1534 13.1659 22.9366C13.6405 22.7199 14.0115 22.3264 14.2 21.84C14.35 21.44 14.23 21.3 13.83 21.27Z" fill="black"/>
<path d="M30 14.86C30.231 15.0398 30.4987 15.1667 30.7842 15.2318C31.0696 15.2968 31.3658 15.2984 31.652 15.2364C31.9381 15.1744 32.2071 15.0503 32.44 14.873C32.673 14.6956 32.8641 14.4693 33 14.21C32.7783 14.0069 32.5111 13.8598 32.2208 13.7813C31.9306 13.7028 31.6257 13.6951 31.3318 13.7587C31.0379 13.8224 30.7636 13.9556 30.5319 14.1473C30.3001 14.3389 30.1177 14.5833 30 14.86Z" fill="black"/>
<path d="M39.44 20.22C38.8327 20.22 38.2502 19.9787 37.8207 19.5493C37.3913 19.1198 37.15 18.5373 37.15 17.93C37.15 17.3227 37.3913 16.7402 37.8207 16.3107C38.2502 15.8813 38.8327 15.64 39.44 15.64C39.8258 15.6522 40.2044 15.7479 40.5497 15.9205C40.895 16.0932 41.1987 16.3386 41.44 16.64L42.6 15.27C41.7404 14.4508 40.5974 13.9957 39.41 14C38.8847 13.9954 38.3637 14.0943 37.8766 14.2911C37.3895 14.4879 36.946 14.7786 36.5713 15.1468C36.1966 15.515 35.8981 15.9534 35.6929 16.4369C35.4876 16.9205 35.3796 17.4397 35.375 17.965C35.3704 18.4903 35.4693 19.0113 35.6661 19.4984C35.8629 19.9855 36.1536 20.429 36.5218 20.8037C36.89 21.1784 37.3284 21.4769 37.8119 21.6821C38.2955 21.8874 38.8147 21.9954 39.34 22C40.564 21.9588 41.7247 21.4465 42.58 20.57L41.41 19.34C40.8892 19.8732 40.1847 20.1879 39.44 20.22Z" fill="black"/>
<path d="M50 16.77C50 15 48.79 14 46.71 14H43.21V21.84H45.21V19.64H46.78L47.95 21.84H50.2L48.55 19.25C49.0078 19.0238 49.3892 18.6683 49.6469 18.2274C49.9046 17.7866 50.0274 17.2799 50 16.77ZM46.73 18.11H45.2V15.61H46.71C47.58 15.61 48.08 16.02 48.08 16.84C48.08 17.66 47.58 18.11 46.71 18.11H46.73Z" fill="black"/>
<path d="M56.12 18.59C56.1445 18.8095 56.1215 19.0316 56.0526 19.2414C55.9837 19.4512 55.8704 19.6437 55.7206 19.8059C55.5707 19.9681 55.3878 20.0961 55.1841 20.1814C54.9804 20.2666 54.7607 20.3071 54.54 20.3C54.3161 20.3093 54.0928 20.2708 53.8849 20.1872C53.677 20.1036 53.4893 19.9767 53.3342 19.815C53.1791 19.6533 53.0602 19.4604 52.9853 19.2492C52.9105 19.038 52.8814 18.8133 52.9 18.59V14H50.9V18.55C50.9 20.62 52.31 21.93 54.52 21.93C54.9844 21.9781 55.4537 21.9253 55.8958 21.7751C56.3379 21.625 56.7423 21.381 57.0814 21.06C57.4204 20.739 57.6861 20.3485 57.8602 19.9153C58.0343 19.4821 58.1127 19.0163 58.09 18.55V14H56.09L56.12 18.59Z" fill="black"/>
<path d="M63 20.22C62.3927 20.22 61.8102 19.9787 61.3807 19.5493C60.9513 19.1198 60.71 18.5373 60.71 17.93C60.71 17.3227 60.9513 16.7402 61.3807 16.3107C61.8102 15.8813 62.3927 15.64 63 15.64C63.3858 15.6522 63.7644 15.7479 64.1097 15.9205C64.455 16.0932 64.7587 16.3386 65 16.64L66.16 15.27C65.293 14.4436 64.1377 13.988 62.94 14C62.4147 13.9954 61.8937 14.0943 61.4066 14.2911C60.9195 14.4879 60.476 14.7786 60.1013 15.1468C59.7266 15.515 59.4281 15.9534 59.2229 16.4369C59.0176 16.9205 58.9096 17.4397 58.905 17.965C58.9004 18.4903 58.9993 19.0113 59.1961 19.4984C59.3929 19.9855 59.6836 20.429 60.0518 20.8037C60.42 21.1784 60.8584 21.4769 61.3419 21.6821C61.8255 21.8874 62.3447 21.9954 62.87 22C64.094 21.9588 65.2547 21.4465 66.11 20.57L64.94 19.34C64.4267 19.8663 63.7342 20.1805 63 20.22Z" fill="black"/>
<path d="M68.73 18.73H72.47V17.17H68.73V15.61H72.88V14.04H66.74V21.88H73V20.31H68.73V18.73Z" fill="black"/>
</svg>
