<svg width="36" height="36" viewBox="0 0 36 36" fill="none" xmlns="http://www.w3.org/2000/svg">
<path d="M24.29 13.79L18 20.09L11.71 13.79C11.5217 13.6017 11.2663 13.4959 11 13.4959C10.7337 13.4959 10.4783 13.6017 10.29 13.79C10.1017 13.9783 9.99591 14.2337 9.99591 14.5C9.99591 14.7663 10.1017 15.0217 10.29 15.21L17.29 22.21C17.383 22.3037 17.4936 22.3781 17.6154 22.4289C17.7373 22.4797 17.868 22.5058 18 22.5058C18.132 22.5058 18.2627 22.4797 18.3846 22.4289C18.5064 22.3781 18.617 22.3037 18.71 22.21L25.71 15.21C25.8032 15.1168 25.8772 15.0061 25.9277 14.8843C25.9781 14.7624 26.0041 14.6319 26.0041 14.5C26.0041 14.3681 25.9781 14.2376 25.9277 14.1158C25.8772 13.9939 25.8032 13.8832 25.71 13.79C25.6168 13.6968 25.5061 13.6228 25.3843 13.5723C25.2624 13.5219 25.1319 13.4959 25 13.4959C24.8681 13.4959 24.7376 13.5219 24.6158 13.5723C24.4939 13.6228 24.3832 13.6968 24.29 13.79V13.79Z" fill="black"/>
</svg>
