<svg width="36" height="36" viewBox="0 0 36 36" fill="none" xmlns="http://www.w3.org/2000/svg">
<path d="M13.79 25.71C13.883 25.8037 13.9936 25.8781 14.1154 25.9289C14.2373 25.9797 14.368 26.0058 14.5 26.0058C14.632 26.0058 14.7627 25.9797 14.8846 25.9289C15.0064 25.8781 15.117 25.8037 15.21 25.71L22.21 18.71C22.3037 18.617 22.3781 18.5064 22.4289 18.3846C22.4797 18.2627 22.5058 18.132 22.5058 18C22.5058 17.868 22.4797 17.7373 22.4289 17.6154C22.3781 17.4936 22.3037 17.383 22.21 17.29L15.21 10.29C15.0217 10.1017 14.7663 9.99591 14.5 9.99591C14.2337 9.99591 13.9783 10.1017 13.79 10.29C13.6017 10.4783 13.4959 10.7337 13.4959 11C13.4959 11.2663 13.6017 11.5217 13.79 11.71L20.09 18L13.79 24.29C13.6963 24.383 13.6219 24.4936 13.5711 24.6154C13.5203 24.7373 13.4942 24.868 13.4942 25C13.4942 25.132 13.5203 25.2627 13.5711 25.3846C13.6219 25.5064 13.6963 25.617 13.79 25.71V25.71Z" fill="black"/>
</svg>
