<svg width="36" height="36" viewBox="0 0 36 36" fill="none" xmlns="http://www.w3.org/2000/svg">
<path d="M28 9H8C7.20435 9 6.44129 9.31607 5.87868 9.87868C5.31607 10.4413 5 11.2044 5 12V24C5 24.7956 5.31607 25.5587 5.87868 26.1213C6.44129 26.6839 7.20435 27 8 27H28C28.7956 27 29.5587 26.6839 30.1213 26.1213C30.6839 25.5587 31 24.7956 31 24V12C31 11.2044 30.6839 10.4413 30.1213 9.87868C29.5587 9.31607 28.7956 9 28 9ZM29 24C29 24.2652 28.8946 24.5196 28.7071 24.7071C28.5196 24.8946 28.2652 25 28 25H8C7.73478 25 7.48043 24.8946 7.29289 24.7071C7.10536 24.5196 7 24.2652 7 24V12C7 11.7348 7.10536 11.4804 7.29289 11.2929C7.48043 11.1054 7.73478 11 8 11H28C28.2652 11 28.5196 11.1054 28.7071 11.2929C28.8946 11.4804 29 11.7348 29 12V24Z" fill="black"/>
<path d="M19.63 17.33L18.75 17.19V15.47C18.9502 15.5397 19.1263 15.6652 19.2575 15.8318C19.3886 15.9984 19.4693 16.199 19.49 16.41H21.71C21.6 14.67 20.12 14.18 18.71 14.05V12.5H17.21V14C15.21 14.11 14.09 14.8 14.09 16.36C14.09 17.92 15.34 18.31 16.62 18.5L17.21 18.59V20.51C16.9351 20.4738 16.6825 20.3396 16.4988 20.1319C16.315 19.9243 16.2125 19.6573 16.21 19.38H14C14 21.38 15.66 21.84 17.25 21.95V23.5H18.75V22C21.18 21.85 22 20.78 22 19.48C22 18.18 21 17.55 19.63 17.33ZM17.12 16.92C16.59 16.83 16.27 16.62 16.27 16.21C16.27 15.8 16.65 15.46 17.27 15.36V16.94L17.12 16.92ZM18.75 20.57V18.86C19.38 18.98 19.75 19.16 19.75 19.68C19.75 20.2 19.36 20.47 18.75 20.57Z" fill="black"/>
</svg>
