<svg width="36" height="36" viewBox="0 0 36 36" fill="none" xmlns="http://www.w3.org/2000/svg">
    <path d="M12.5 29C13.5609 29 14.5783 28.5786 15.3284 27.8284C16.0786 27.0783 16.5 26.0609 16.5 25H20.5C20.5 26.0609 20.9214 27.0783 21.6716 27.8284C22.4217 28.5786 23.4391 29 24.5 29C25.5609 29 26.5783 28.5786 27.3284 27.8284C28.0786 27.0783 28.5 26.0609 28.5 25H30.5V24C30.5 22.45 29.83 19.67 27.43 19.1C26.9706 16.6922 26.3423 14.3197 25.55 12H26.5C26.5 12.5304 26.7107 13.0391 27.0858 13.4142C27.4609 13.7893 27.9696 14 28.5 14H29.5V8H28.5C27.9696 8 27.4609 8.21071 27.0858 8.58579C26.7107 8.96086 26.5 9.46957 26.5 10H20.5C20.2348 10 19.9804 10.1054 19.7929 10.2929C19.6054 10.4804 19.5 10.7348 19.5 11C19.5 11.2652 19.6054 11.5196 19.7929 11.7071C19.9804 11.8946 20.2348 12 20.5 12H22.5V12.11C22.73 14.28 22.66 18.21 21.5 19.56C21.379 19.706 21.2256 19.8218 21.052 19.8982C20.8784 19.9746 20.6894 20.0094 20.5 20C19.5 20 19.5 20 19.5 17V16H18.5V13C18.5 12.7348 18.3946 12.4804 18.2071 12.2929C18.0196 12.1054 17.7652 12 17.5 12H10.5C10.2348 12 9.98043 12.1054 9.79289 12.2929C9.60536 12.4804 9.5 12.7348 9.5 13V17C7.06 18 5.5 20 5.5 24V25H8.5C8.5 26.0609 8.92143 27.0783 9.67157 27.8284C10.4217 28.5786 11.4391 29 12.5 29ZM12.5 27C11.9696 27 11.4609 26.7893 11.0858 26.4142C10.7107 26.0391 10.5 25.5304 10.5 25H14.5C14.5 25.5304 14.2893 26.0391 13.9142 26.4142C13.5391 26.7893 13.0304 27 12.5 27ZM24.5 27C23.9696 27 23.4609 26.7893 23.0858 26.4142C22.7107 26.0391 22.5 25.5304 22.5 25H26.5C26.5 25.5304 26.2893 26.0391 25.9142 26.4142C25.5391 26.7893 25.0304 27 24.5 27ZM11.5 14H16.5V16C14.8256 15.9856 13.153 16.1127 11.5 16.38V14ZM7.5 23C7.87 18.44 10.98 18 17.5 18C17.5 20.37 17.86 22 20.5 22C20.9727 22.0105 21.442 21.9165 21.8741 21.7246C22.3063 21.5327 22.6908 21.2477 23 20.89C24.11 19.65 24.51 17.54 24.62 15.67C25.0579 17.0801 25.3527 18.5308 25.5 20V21H26.5C27.73 21 28.2 22.13 28.38 23H7.5Z" fill="#76B043"/>
</svg>
