<svg width="36" height="36" viewBox="0 0 36 36" fill="none" xmlns="http://www.w3.org/2000/svg">
<path d="M27.2 12H25V9C25 8.73478 24.8946 8.48043 24.7071 8.29289C24.5196 8.10536 24.2652 8 24 8H4C3.73478 8 3.48043 8.10536 3.29289 8.29289C3.10536 8.48043 3 8.73478 3 9V23C3 23.2652 3.10536 23.5196 3.29289 23.7071C3.48043 23.8946 3.73478 24 4 24H6.14C6.05221 24.3263 6.00518 24.6622 6 25C6 26.0609 6.42143 27.0783 7.17157 27.8284C7.92172 28.5786 8.93913 29 10 29C11.0609 29 12.0783 28.5786 12.8284 27.8284C13.5786 27.0783 14 26.0609 14 25C13.9948 24.6622 13.9478 24.3263 13.86 24H21.14C21.0522 24.3263 21.0052 24.6622 21 25C21 26.0609 21.4214 27.0783 22.1716 27.8284C22.9217 28.5786 23.9391 29 25 29C26.0609 29 27.0783 28.5786 27.8284 27.8284C28.5786 27.0783 29 26.0609 29 25C28.9948 24.6622 28.9478 24.3263 28.86 24H32C32.2652 24 32.5196 23.8946 32.7071 23.7071C32.8946 23.5196 33 23.2652 33 23V18.45C33 14.9 30.4 12 27.2 12ZM5 10H23V21.55C22.7791 21.6794 22.5715 21.8301 22.38 22H12.62C11.8995 21.3555 10.9667 20.9992 10 20.9992C9.03331 20.9992 8.10053 21.3555 7.38 22H5V10ZM10 27C9.6435 26.9989 9.29376 26.9026 8.987 26.721C8.68024 26.5393 8.42761 26.279 8.25525 25.9669C8.0829 25.6548 7.99709 25.3024 8.00672 24.946C8.01634 24.5896 8.12105 24.2423 8.31 23.94C8.45656 23.8908 8.58973 23.8084 8.69904 23.699C8.80835 23.5897 8.89083 23.4566 8.94 23.31C9.25786 23.1113 9.62516 23.006 10 23.006C10.3748 23.006 10.7421 23.1113 11.06 23.31C11.1092 23.4566 11.1917 23.5897 11.301 23.699C11.4103 23.8084 11.5434 23.8908 11.69 23.94C11.8789 24.2423 11.9837 24.5896 11.9933 24.946C12.0029 25.3024 11.9171 25.6548 11.7447 25.9669C11.5724 26.279 11.3198 26.5393 11.013 26.721C10.7062 26.9026 10.3565 26.9989 10 27ZM25 27C24.6435 26.9989 24.2938 26.9026 23.987 26.721C23.6802 26.5393 23.4276 26.279 23.2553 25.9669C23.0829 25.6548 22.9971 25.3024 23.0067 24.946C23.0163 24.5896 23.1211 24.2423 23.31 23.94C23.4566 23.8908 23.5897 23.8084 23.699 23.699C23.8084 23.5897 23.8908 23.4566 23.94 23.31C24.2572 23.1092 24.6246 23.0018 25 23C25.5281 22.9996 26.035 23.2081 26.41 23.58C26.4477 23.6377 26.4913 23.6913 26.54 23.74C26.8338 24.0945 26.9963 24.5396 27 25C27 25.5304 26.7893 26.0391 26.4142 26.4142C26.0391 26.7893 25.5304 27 25 27ZM31 22H27.62C26.896 21.3614 25.9654 21.0062 25 21V14H27.2C29.3 14 31 16 31 18.45V22Z" fill="black"/>
<path d="M8 14H17C17.2652 14 17.5196 13.8946 17.7071 13.7071C17.8946 13.5196 18 13.2652 18 13C18 12.7348 17.8946 12.4804 17.7071 12.2929C17.5196 12.1054 17.2652 12 17 12H8C7.73478 12 7.48043 12.1054 7.29289 12.2929C7.10536 12.4804 7 12.7348 7 13C7 13.2652 7.10536 13.5196 7.29289 13.7071C7.48043 13.8946 7.73478 14 8 14Z" fill="black"/>
<path d="M8 18H17C17.2652 18 17.5196 17.8946 17.7071 17.7071C17.8946 17.5196 18 17.2652 18 17C18 16.7348 17.8946 16.4804 17.7071 16.2929C17.5196 16.1054 17.2652 16 17 16H8C7.73478 16 7.48043 16.1054 7.29289 16.2929C7.10536 16.4804 7 16.7348 7 17C7 17.2652 7.10536 17.5196 7.29289 17.7071C7.48043 17.8946 7.73478 18 8 18Z" fill="black"/>
</svg>
