<svg width="36" height="36" viewBox="0 0 36 36" fill="none" xmlns="http://www.w3.org/2000/svg">
<path d="M18 7L14.6 14.24L7 15.38L12.5 21L11.2 29L18 25.22L24.8 29L23.5 21L29 15.38L21.4 14.22L18 7ZM22.07 19.64C21.8516 19.8644 21.689 20.137 21.5952 20.4357C21.5014 20.7345 21.4791 21.051 21.53 21.36L22.16 25.25L19 23.47C18.7032 23.3054 18.3694 23.219 18.03 23.219C17.6906 23.219 17.3568 23.3054 17.06 23.47L13.87 25.23L14.5 21.34C14.5509 21.031 14.5286 20.7145 14.4348 20.4157C14.341 20.117 14.1784 19.8444 13.96 19.62L11.18 16.77L14.93 16.2C15.2552 16.1504 15.5632 16.0213 15.8266 15.8242C16.09 15.6271 16.3007 15.368 16.44 15.07L18 11.68L19.59 15.07C19.7293 15.368 19.94 15.6271 20.2034 15.8242C20.4668 16.0213 20.7748 16.1504 21.1 16.2L24.85 16.77L22.07 19.64Z" fill="black"/>
</svg>
