<svg width="36" height="36" viewBox="0 0 36 36" fill="none" xmlns="http://www.w3.org/2000/svg">
<path d="M25 17H16C15.7348 17 15.4804 17.1054 15.2929 17.2929C15.1054 17.4804 15 17.7348 15 18C15 18.2652 15.1054 18.5196 15.2929 18.7071C15.4804 18.8946 15.7348 19 16 19H25C25.2652 19 25.5196 18.8946 25.7071 18.7071C25.8946 18.5196 26 18.2652 26 18C26 17.7348 25.8946 17.4804 25.7071 17.2929C25.5196 17.1054 25.2652 17 25 17Z" fill="black"/>
<path d="M16.29 24.71C16.383 24.8037 16.4936 24.8781 16.6154 24.9289C16.7373 24.9797 16.868 25.0058 17 25.0058C17.132 25.0058 17.2627 24.9797 17.3846 24.9289C17.5064 24.8781 17.617 24.8037 17.71 24.71C17.8037 24.617 17.8781 24.5064 17.9289 24.3846C17.9797 24.2627 18.0058 24.132 18.0058 24C18.0058 23.868 17.9797 23.7373 17.9289 23.6154C17.8781 23.4936 17.8037 23.383 17.71 23.29L12.41 18L17.71 12.71C17.8032 12.6168 17.8772 12.5061 17.9277 12.3843C17.9781 12.2624 18.0041 12.1319 18.0041 12C18.0041 11.8681 17.9781 11.7376 17.9277 11.6158C17.8772 11.4939 17.8032 11.3832 17.71 11.29C17.6168 11.1968 17.5061 11.1228 17.3842 11.0723C17.2624 11.0219 17.1319 10.9959 17 10.9959C16.8681 10.9959 16.7376 11.0219 16.6158 11.0723C16.4939 11.1228 16.3832 11.1968 16.29 11.29L10.29 17.29C10.1963 17.383 10.1219 17.4936 10.0711 17.6154C10.0203 17.7373 9.9942 17.868 9.9942 18C9.9942 18.132 10.0203 18.2627 10.0711 18.3846C10.1219 18.5064 10.1963 18.617 10.29 18.71L16.29 24.71Z" fill="black"/>
</svg>
