<svg width="36" height="36" viewBox="0 0 36 36" fill="none" xmlns="http://www.w3.org/2000/svg">
<path d="M11 19H20C20.2652 19 20.5196 18.8946 20.7071 18.7071C20.8946 18.5196 21 18.2652 21 18C21 17.7348 20.8946 17.4804 20.7071 17.2929C20.5196 17.1054 20.2652 17 20 17H11C10.7348 17 10.4804 17.1054 10.2929 17.2929C10.1054 17.4804 10 17.7348 10 18C10 18.2652 10.1054 18.5196 10.2929 18.7071C10.4804 18.8946 10.7348 19 11 19Z" fill="black"/>
<path d="M19.71 11.29C19.5217 11.1017 19.2663 10.9959 19 10.9959C18.7337 10.9959 18.4783 11.1017 18.29 11.29C18.1017 11.4783 17.9959 11.7337 17.9959 12C17.9959 12.2663 18.1017 12.5217 18.29 12.71L23.59 18L18.29 23.29C18.1963 23.383 18.1219 23.4936 18.0711 23.6154C18.0203 23.7373 17.9942 23.868 17.9942 24C17.9942 24.132 18.0203 24.2627 18.0711 24.3846C18.1219 24.5064 18.1963 24.617 18.29 24.71C18.383 24.8037 18.4936 24.8781 18.6154 24.9289C18.7373 24.9797 18.868 25.0058 19 25.0058C19.132 25.0058 19.2627 24.9797 19.3846 24.9289C19.5064 24.8781 19.617 24.8037 19.71 24.71L25.71 18.71C25.8037 18.617 25.8781 18.5064 25.9289 18.3846C25.9797 18.2627 26.0058 18.132 26.0058 18C26.0058 17.868 25.9797 17.7373 25.9289 17.6154C25.8781 17.4936 25.8037 17.383 25.71 17.29L19.71 11.29Z" fill="black"/>
</svg>
