<svg width="36" height="36" viewBox="0 0 36 36" fill="none" xmlns="http://www.w3.org/2000/svg">
<path d="M29 12.77L18 6L7 12.77V28H29V12.77ZM26.27 13.44L18 19.17L9.73 13.44L18 8.35L26.27 13.44ZM9 26V15.37L16.25 20.37L12.77 22.79C12.5528 22.9414 12.4045 23.1728 12.3577 23.4333C12.3108 23.6939 12.3692 23.9624 12.52 24.18C12.6129 24.3139 12.737 24.423 12.8817 24.498C13.0263 24.5729 13.1871 24.6114 13.35 24.61C13.5539 24.6095 13.7528 24.5467 13.92 24.43L18 21.6L22.08 24.45C22.2472 24.5667 22.4461 24.6295 22.65 24.63C22.8129 24.6314 22.9737 24.5929 23.1183 24.518C23.263 24.443 23.3871 24.3339 23.48 24.2C23.6308 23.9824 23.6892 23.7139 23.6423 23.4533C23.5955 23.1928 23.4472 22.9614 23.23 22.81L19.75 20.39L27 15.39V26H9Z" fill="black"/>
</svg>
