<svg width="36" height="36" viewBox="0 0 36 36" fill="none" xmlns="http://www.w3.org/2000/svg">
<path d="M23 29C24.5913 29 26.1174 28.3679 27.2426 27.2426C28.3679 26.1174 29 24.5913 29 23V13C29 11.4087 28.3679 9.88258 27.2426 8.75736C26.1174 7.63214 24.5913 7 23 7H13C11.4087 7 9.88258 7.63214 8.75736 8.75736C7.63214 9.88258 7 11.4087 7 13V23C7 24.5913 7.63214 26.1174 8.75736 27.2426C9.88258 28.3679 11.4087 29 13 29H23ZM9 23V13C9 11.9391 9.42143 10.9217 10.1716 10.1716C10.9217 9.42143 11.9391 9 13 9H23C24.0609 9 25.0783 9.42143 25.8284 10.1716C26.5786 10.9217 27 11.9391 27 13V23C27 24.0609 26.5786 25.0783 25.8284 25.8284C25.0783 26.5786 24.0609 27 23 27H13C11.9391 27 10.9217 26.5786 10.1716 25.8284C9.42143 25.0783 9 24.0609 9 23Z" fill="black"/>
<path d="M24 13.5C24.8284 13.5 25.5 12.8284 25.5 12C25.5 11.1716 24.8284 10.5 24 10.5C23.1716 10.5 22.5 11.1716 22.5 12C22.5 12.8284 23.1716 13.5 24 13.5Z" fill="black"/>
<path d="M18 23C18.9889 23 19.9556 22.7068 20.7779 22.1573C21.6001 21.6079 22.241 20.827 22.6194 19.9134C22.9978 18.9998 23.0969 17.9945 22.9039 17.0245C22.711 16.0546 22.2348 15.1637 21.5355 14.4645C20.8363 13.7652 19.9454 13.289 18.9755 13.0961C18.0055 12.9031 17.0002 13.0022 16.0866 13.3806C15.173 13.759 14.3921 14.3999 13.8427 15.2221C13.2932 16.0444 13 17.0111 13 18C13 18.6566 13.1293 19.3068 13.3806 19.9134C13.6319 20.52 14.0002 21.0712 14.4645 21.5355C15.4021 22.4732 16.6739 23 18 23ZM18 15C18.5933 15 19.1734 15.1759 19.6667 15.5056C20.1601 15.8352 20.5446 16.3038 20.7716 16.8519C20.9987 17.4001 21.0581 18.0033 20.9424 18.5853C20.8266 19.1672 20.5409 19.7018 20.1213 20.1213C19.7018 20.5409 19.1672 20.8266 18.5853 20.9424C18.0033 21.0581 17.4001 20.9987 16.8519 20.7716C16.3038 20.5446 15.8352 20.1601 15.5056 19.6667C15.1759 19.1734 15 18.5933 15 18C15 17.2044 15.3161 16.4413 15.8787 15.8787C16.4413 15.3161 17.2044 15 18 15Z" fill="black"/>
</svg>
