<svg width="36" height="36" viewBox="0 0 36 36" fill="none" xmlns="http://www.w3.org/2000/svg">
<path d="M17 25.93V28C17 28.2652 17.1054 28.5196 17.2929 28.7071C17.4804 28.8946 17.7348 29 18 29C18.2652 29 18.5196 28.8946 18.7071 28.7071C18.8946 28.5196 19 28.2652 19 28V25.93C20.76 25.7068 22.3959 24.9049 23.6504 23.6504C24.9049 22.3959 25.7068 20.76 25.93 19H28C28.2652 19 28.5196 18.8946 28.7071 18.7071C28.8946 18.5196 29 18.2652 29 18C29 17.7348 28.8946 17.4804 28.7071 17.2929C28.5196 17.1054 28.2652 17 28 17H25.93C25.7068 15.24 24.9049 13.6041 23.6504 12.3496C22.3959 11.0951 20.76 10.2932 19 10.07V8C19 7.73478 18.8946 7.48043 18.7071 7.29289C18.5196 7.10536 18.2652 7 18 7C17.7348 7 17.4804 7.10536 17.2929 7.29289C17.1054 7.48043 17 7.73478 17 8V10.07C15.24 10.2932 13.6041 11.0951 12.3496 12.3496C11.0951 13.6041 10.2932 15.24 10.07 17H8C7.73478 17 7.48043 17.1054 7.29289 17.2929C7.10536 17.4804 7 17.7348 7 18C7 18.2652 7.10536 18.5196 7.29289 18.7071C7.48043 18.8946 7.73478 19 8 19H10.07C10.2932 20.76 11.0951 22.3959 12.3496 23.6504C13.6041 24.9049 15.24 25.7068 17 25.93ZM17 12.09V14C17 14.2652 17.1054 14.5196 17.2929 14.7071C17.4804 14.8946 17.7348 15 18 15C18.2652 15 18.5196 14.8946 18.7071 14.7071C18.8946 14.5196 19 14.2652 19 14V12.09C20.2264 12.2984 21.3578 12.8829 22.2374 13.7626C23.1171 14.6422 23.7016 15.7736 23.91 17H22C21.7348 17 21.4804 17.1054 21.2929 17.2929C21.1054 17.4804 21 17.7348 21 18C21 18.2652 21.1054 18.5196 21.2929 18.7071C21.4804 18.8946 21.7348 19 22 19H23.91C23.7016 20.2264 23.1171 21.3578 22.2374 22.2374C21.3578 23.1171 20.2264 23.7016 19 23.91V22C19 21.7348 18.8946 21.4804 18.7071 21.2929C18.5196 21.1054 18.2652 21 18 21C17.7348 21 17.4804 21.1054 17.2929 21.2929C17.1054 21.4804 17 21.7348 17 22V23.91C15.7736 23.7016 14.6422 23.1171 13.7626 22.2374C12.8829 21.3578 12.2984 20.2264 12.09 19H14C14.2652 19 14.5196 18.8946 14.7071 18.7071C14.8946 18.5196 15 18.2652 15 18C15 17.7348 14.8946 17.4804 14.7071 17.2929C14.5196 17.1054 14.2652 17 14 17H12.09C12.2984 15.7736 12.8829 14.6422 13.7626 13.7626C14.6422 12.8829 15.7736 12.2984 17 12.09V12.09Z" fill="black"/>
</svg>
