<svg width="36" height="36" viewBox="0 0 36 36" fill="none" xmlns="http://www.w3.org/2000/svg">
<path d="M18 20C12.48 20 8 24 8 29H28C28 24 23.52 20 18 20ZM10.33 27C10.9432 25.4819 12.0074 24.1884 13.379 23.2943C14.7506 22.4001 16.3635 21.9484 18 22C19.6365 21.9484 21.2494 22.4001 22.621 23.2943C23.9926 24.1884 25.0568 25.4819 25.67 27H10.33Z" fill="black"/>
<path d="M18 19C19.1867 19 20.3467 18.6481 21.3334 17.9888C22.3201 17.3295 23.0892 16.3925 23.5433 15.2961C23.9974 14.1997 24.1162 12.9933 23.8847 11.8295C23.6532 10.6656 23.0818 9.59648 22.2426 8.75736C21.4035 7.91825 20.3344 7.3468 19.1705 7.11529C18.0067 6.88378 16.8003 7.0026 15.7039 7.45673C14.6075 7.91085 13.6705 8.67989 13.0112 9.66658C12.3519 10.6533 12 11.8133 12 13C12 14.5913 12.6321 16.1174 13.7574 17.2426C14.8826 18.3679 16.4087 19 18 19ZM18 9C18.7911 9 19.5645 9.2346 20.2223 9.67412C20.8801 10.1137 21.3928 10.7384 21.6955 11.4693C21.9983 12.2002 22.0775 13.0044 21.9231 13.7804C21.7688 14.5563 21.3878 15.269 20.8284 15.8284C20.269 16.3878 19.5563 16.7688 18.7804 16.9231C18.0044 17.0775 17.2002 16.9983 16.4693 16.6955C15.7384 16.3928 15.1136 15.8801 14.6741 15.2223C14.2346 14.5645 14 13.7911 14 13C14 11.9391 14.4214 10.9217 15.1716 10.1716C15.9217 9.42143 16.9391 9 18 9Z" fill="black"/>
</svg>
