<svg width="36" height="36" viewBox="0 0 36 36" fill="none" xmlns="http://www.w3.org/2000/svg">
<path d="M16 13.36C15.7348 13.36 15.4804 13.4654 15.2929 13.6529C15.1054 13.8404 15 14.0948 15 14.36V21.64C15 22.4356 15.3161 23.1987 15.8787 23.7613C16.4413 24.3239 17.2044 24.64 18 24.64C18.7956 24.64 19.5587 24.3239 20.1213 23.7613C20.6839 23.1987 21 22.4356 21 21.64V12.55C21 8 18.55 7 16.5 7C14.45 7 12 8 12 12.55V23.45C12.0624 24.9807 12.7289 26.4242 13.8535 27.4644C14.9781 28.5047 16.4691 29.0568 18 29C19.5309 29.0568 21.0219 28.5047 22.1465 27.4644C23.2711 26.4242 23.9376 24.9807 24 23.45V14.36C24 14.0948 23.8946 13.8404 23.7071 13.6529C23.5196 13.4654 23.2652 13.36 23 13.36C22.7348 13.36 22.4804 13.4654 22.2929 13.6529C22.1054 13.8404 22 14.0948 22 14.36V23.45C21.9356 24.4494 21.4793 25.383 20.7302 26.0478C19.9812 26.7126 19 27.0548 18 27C17 27.0548 16.0188 26.7126 15.2698 26.0478C14.5207 25.383 14.0644 24.4494 14 23.45V12.55C14 9.43 15.2 9 16.5 9C17.8 9 19 9.43 19 12.55V21.64C19 21.9052 18.8946 22.1596 18.7071 22.3471C18.5196 22.5346 18.2652 22.64 18 22.64C17.7348 22.64 17.4804 22.5346 17.2929 22.3471C17.1054 22.1596 17 21.9052 17 21.64V14.36C17 14.0948 16.8946 13.8404 16.7071 13.6529C16.5196 13.4654 16.2652 13.36 16 13.36Z" fill="black"/>
</svg>
