<svg width="36" height="36" viewBox="0 0 36 36" fill="none" xmlns="http://www.w3.org/2000/svg">
<path d="M16.74 22.21L14.71 20.17L13.29 21.58L16.73 25.04L22.71 19.09L21.29 17.67L16.74 22.21Z" fill="black"/>
<path d="M26 13H24V11C24 8.24 21.31 6 18 6C14.69 6 12 8.24 12 11V13H10C9.20435 13 8.44129 13.3161 7.87868 13.8787C7.31607 14.4413 7 15.2044 7 16V26C7 26.7956 7.31607 27.5587 7.87868 28.1213C8.44129 28.6839 9.20435 29 10 29H26C26.7956 29 27.5587 28.6839 28.1213 28.1213C28.6839 27.5587 29 26.7956 29 26V16C29 15.2044 28.6839 14.4413 28.1213 13.8787C27.5587 13.3161 26.7956 13 26 13ZM14 11C14 9.35 15.79 8 18 8C20.21 8 22 9.35 22 11V13H14V11ZM27 26C27 26.2652 26.8946 26.5196 26.7071 26.7071C26.5196 26.8946 26.2652 27 26 27H10C9.73478 27 9.48043 26.8946 9.29289 26.7071C9.10536 26.5196 9 26.2652 9 26V16C9 15.7348 9.10536 15.4804 9.29289 15.2929C9.48043 15.1054 9.73478 15 10 15H26C26.2652 15 26.5196 15.1054 26.7071 15.2929C26.8946 15.4804 27 15.7348 27 16V26Z" fill="black"/>
</svg>
