<svg width="36" height="36" viewBox="0 0 36 36" fill="none" xmlns="http://www.w3.org/2000/svg">
<path d="M13 17H23C23.2652 17 23.5196 16.8946 23.7071 16.7071C23.8946 16.5196 24 16.2652 24 16C24 15.7348 23.8946 15.4804 23.7071 15.2929C23.5196 15.1054 23.2652 15 23 15H13C12.7348 15 12.4804 15.1054 12.2929 15.2929C12.1054 15.4804 12 15.7348 12 16C12 16.2652 12.1054 16.5196 12.2929 16.7071C12.4804 16.8946 12.7348 17 13 17Z" fill="black"/>
<path d="M13 21H20C20.2652 21 20.5196 20.8946 20.7071 20.7071C20.8946 20.5196 21 20.2652 21 20C21 19.7348 20.8946 19.4804 20.7071 19.2929C20.5196 19.1054 20.2652 19 20 19H13C12.7348 19 12.4804 19.1054 12.2929 19.2929C12.1054 19.4804 12 19.7348 12 20C12 20.2652 12.1054 20.5196 12.2929 20.7071C12.4804 20.8946 12.7348 21 13 21Z" fill="black"/>
<path d="M12.17 27.33C14.4637 28.7623 17.2047 29.2996 19.8694 28.8391C22.5342 28.3787 24.9359 26.9527 26.616 24.8337C28.296 22.7147 29.1366 20.0511 28.9773 17.3515C28.8179 14.652 27.6698 12.1058 25.7521 10.1991C23.8344 8.2925 21.2815 7.15907 18.5811 7.01532C15.8807 6.87157 13.222 7.72757 11.1127 9.41984C9.00345 11.1121 7.59145 13.5221 7.14639 16.1894C6.70134 18.8568 7.25442 21.5946 8.7 23.88L7 29L12.17 27.33ZM18 8.99999C19.3941 8.9995 20.7692 9.32287 22.017 9.94461C23.2647 10.5663 24.351 11.4694 25.1902 12.5827C26.0293 13.6959 26.5983 14.9889 26.8524 16.3596C27.1065 17.7304 27.0387 19.1414 26.6543 20.4814C26.27 21.8215 25.5795 23.0539 24.6375 24.0815C23.6955 25.1092 22.5276 25.904 21.226 26.4032C19.9244 26.9024 18.5246 27.0924 17.137 26.9582C15.7493 26.824 14.4119 26.3693 13.23 25.63C12.9117 25.4327 12.5445 25.3288 12.17 25.33C11.9592 25.3281 11.7496 25.3619 11.55 25.43L10.15 25.88C10.9 23.59 10.85 23.44 10.36 22.77C9.50817 21.4071 9.03686 19.8409 8.99503 18.2342C8.9532 16.6275 9.34238 15.039 10.1221 13.6336C10.9019 12.2282 12.0438 11.0572 13.4291 10.2424C14.8145 9.42755 16.3928 8.99856 18 8.99999Z" fill="black"/>
</svg>
