<svg width="36" height="36" viewBox="0 0 36 36" fill="none" xmlns="http://www.w3.org/2000/svg">
<path d="M28 9H8C7.20435 9 6.44129 9.31607 5.87868 9.87868C5.31607 10.4413 5 11.2044 5 12V24C5 24.7956 5.31607 25.5587 5.87868 26.1213C6.44129 26.6839 7.20435 27 8 27H28C28.7956 27 29.5587 26.6839 30.1213 26.1213C30.6839 25.5587 31 24.7956 31 24V12C31 11.2044 30.6839 10.4413 30.1213 9.87868C29.5587 9.31607 28.7956 9 28 9ZM29 24C29 24.2652 28.8946 24.5196 28.7071 24.7071C28.5196 24.8946 28.2652 25 28 25H8C7.73478 25 7.48043 24.8946 7.29289 24.7071C7.10536 24.5196 7 24.2652 7 24V16H29V24ZM7 13V12C7 11.7348 7.10536 11.4804 7.29289 11.2929C7.48043 11.1054 7.73478 11 8 11H28C28.2652 11 28.5196 11.1054 28.7071 11.2929C28.8946 11.4804 29 11.7348 29 12V13H7Z" fill="black"/>
<path d="M13 19H9V23H13V19Z" fill="black"/>
</svg>
