<svg width="36" height="36" viewBox="0 0 36 36" fill="none" xmlns="http://www.w3.org/2000/svg">
<path d="M10.29 22.21C10.383 22.3037 10.4936 22.3781 10.6154 22.4289C10.7373 22.4797 10.868 22.5058 11 22.5058C11.132 22.5058 11.2627 22.4797 11.3846 22.4289C11.5064 22.3781 11.617 22.3037 11.71 22.21L18 15.91L24.29 22.21C24.383 22.3037 24.4936 22.3781 24.6154 22.4289C24.7373 22.4797 24.868 22.5058 25 22.5058C25.132 22.5058 25.2627 22.4797 25.3846 22.4289C25.5064 22.3781 25.617 22.3037 25.71 22.21C25.8037 22.117 25.8781 22.0064 25.9289 21.8846C25.9797 21.7627 26.0058 21.632 26.0058 21.5C26.0058 21.368 25.9797 21.2373 25.9289 21.1154C25.8781 20.9936 25.8037 20.883 25.71 20.79L18.71 13.79C18.617 13.6963 18.5064 13.6219 18.3846 13.5711C18.2627 13.5203 18.132 13.4942 18 13.4942C17.868 13.4942 17.7373 13.5203 17.6154 13.5711C17.4936 13.6219 17.383 13.6963 17.29 13.79L10.29 20.79C10.1963 20.883 10.1219 20.9936 10.0711 21.1154C10.0203 21.2373 9.9942 21.368 9.9942 21.5C9.9942 21.632 10.0203 21.7627 10.0711 21.8846C10.1219 22.0064 10.1963 22.117 10.29 22.21V22.21Z" fill="black"/>
</svg>
