<svg width="36" height="36" viewBox="0 0 36 36" fill="none" xmlns="http://www.w3.org/2000/svg">
<path d="M17 11V20C17 20.2652 17.1054 20.5196 17.2929 20.7071C17.4804 20.8946 17.7348 21 18 21C18.2652 21 18.5196 20.8946 18.7071 20.7071C18.8946 20.5196 19 20.2652 19 20V11C19 10.7348 18.8946 10.4804 18.7071 10.2929C18.5196 10.1054 18.2652 10 18 10C17.7348 10 17.4804 10.1054 17.2929 10.2929C17.1054 10.4804 17 10.7348 17 11Z" fill="black"/>
<path d="M17.29 25.71C17.383 25.8037 17.4936 25.8781 17.6154 25.9289C17.7373 25.9797 17.868 26.0058 18 26.0058C18.132 26.0058 18.2627 25.9797 18.3846 25.9289C18.5064 25.8781 18.617 25.8037 18.71 25.71L24.71 19.71C24.8032 19.6168 24.8772 19.5061 24.9277 19.3842C24.9781 19.2624 25.0041 19.1319 25.0041 19C25.0041 18.8681 24.9781 18.7376 24.9277 18.6158C24.8772 18.4939 24.8032 18.3832 24.71 18.29C24.6168 18.1968 24.5061 18.1228 24.3843 18.0723C24.2624 18.0219 24.1319 17.9959 24 17.9959C23.8681 17.9959 23.7376 18.0219 23.6158 18.0723C23.4939 18.1228 23.3832 18.1968 23.29 18.29L18 23.59L12.71 18.29C12.6168 18.1968 12.5061 18.1228 12.3843 18.0723C12.2624 18.0219 12.1319 17.9959 12 17.9959C11.8681 17.9959 11.7376 18.0219 11.6158 18.0723C11.4939 18.1228 11.3832 18.1968 11.29 18.29C11.1968 18.3832 11.1228 18.4939 11.0723 18.6158C11.0219 18.7376 10.9959 18.8681 10.9959 19C10.9959 19.1319 11.0219 19.2624 11.0723 19.3842C11.1228 19.5061 11.1968 19.6168 11.29 19.71L17.29 25.71Z" fill="black"/>
</svg>

