<svg width="36" height="36" viewBox="0 0 36 36" fill="none" xmlns="http://www.w3.org/2000/svg">
<path d="M19 15C19.5185 14.9997 20.0169 15.2008 20.39 15.5608C20.7632 15.9209 20.9819 16.4118 21 16.93C20.9989 17.1824 20.947 17.4321 20.8473 17.664C20.7477 17.896 20.6024 18.1054 20.42 18.28C20.3263 18.373 20.2519 18.4836 20.2011 18.6054C20.1503 18.7273 20.1242 18.858 20.1242 18.99C20.1242 19.122 20.1503 19.2527 20.2011 19.3746C20.2519 19.4964 20.3263 19.607 20.42 19.7C20.5126 19.7945 20.6231 19.8697 20.7449 19.9212C20.8668 19.9727 20.9977 19.9995 21.13 20C21.3909 20.0016 21.6421 19.9011 21.83 19.72C22.201 19.3563 22.4956 18.9222 22.6966 18.4431C22.8975 17.964 23.0006 17.4495 23 16.93C22.9816 15.8813 22.5521 14.8818 21.804 14.1467C21.0558 13.4116 20.0488 12.9998 19 13C18.7348 13 18.4804 13.1054 18.2929 13.2929C18.1054 13.4804 18 13.7348 18 14C18 14.2652 18.1054 14.5196 18.2929 14.7071C18.4804 14.8946 18.7348 15 19 15Z" fill="black"/>
<path d="M9 28C9.13161 28.0008 9.26207 27.9755 9.38391 27.9258C9.50574 27.876 9.61656 27.8027 9.71 27.71L14.1 23.31C15.4968 24.4084 17.2231 25.0038 19 25C20.5823 25 22.129 24.5308 23.4446 23.6518C24.7602 22.7727 25.7855 21.5233 26.391 20.0615C26.9965 18.5997 27.155 16.9911 26.8463 15.4393C26.5376 13.8874 25.7757 12.462 24.6569 11.3431C23.538 10.2243 22.1126 9.4624 20.5607 9.15372C19.0089 8.84504 17.4003 9.00347 15.9385 9.60897C14.4767 10.2145 13.2273 11.2398 12.3482 12.5554C11.4692 13.871 11 15.4178 11 17C10.9962 18.7769 11.5916 20.5032 12.69 21.9L8.29 26.29C8.19627 26.383 8.12188 26.4936 8.07111 26.6154C8.02034 26.7373 7.9942 26.868 7.9942 27C7.9942 27.132 8.02034 27.2627 8.07111 27.3846C8.12188 27.5064 8.19627 27.617 8.29 27.71C8.38344 27.8027 8.49426 27.876 8.61609 27.9258C8.73793 27.9755 8.86839 28.0008 9 28ZM19 11C20.1867 11 21.3467 11.3519 22.3334 12.0112C23.3201 12.6705 24.0892 13.6075 24.5433 14.7039C24.9974 15.8003 25.1162 17.0067 24.8847 18.1705C24.6532 19.3344 24.0818 20.4035 23.2426 21.2426C22.4035 22.0818 21.3344 22.6532 20.1705 22.8847C19.0067 23.1162 17.8003 22.9974 16.7039 22.5433C15.6075 22.0892 14.6705 21.3201 14.0112 20.3334C13.3519 19.3467 13 18.1867 13 17C13 15.4087 13.6321 13.8826 14.7574 12.7574C15.8826 11.6321 17.4087 11 19 11Z" fill="black"/>
</svg>
