<svg width="36" height="36" viewBox="0 0 36 36" fill="none" xmlns="http://www.w3.org/2000/svg">
<path d="M10.5 13H25.5C25.7652 13 26.0196 12.8946 26.2071 12.7071C26.3946 12.5196 26.5 12.2652 26.5 12C26.5 11.7348 26.3946 11.4804 26.2071 11.2929C26.0196 11.1054 25.7652 11 25.5 11H10.5C10.2348 11 9.98043 11.1054 9.79289 11.2929C9.60536 11.4804 9.5 11.7348 9.5 12C9.5 12.2652 9.60536 12.5196 9.79289 12.7071C9.98043 12.8946 10.2348 13 10.5 13Z" fill="black"/>
<path d="M10.5 25H25.5C25.7652 25 26.0196 24.8946 26.2071 24.7071C26.3946 24.5196 26.5 24.2652 26.5 24C26.5 23.7348 26.3946 23.4804 26.2071 23.2929C26.0196 23.1054 25.7652 23 25.5 23H10.5C10.2348 23 9.98043 23.1054 9.79289 23.2929C9.60536 23.4804 9.5 23.7348 9.5 24C9.5 24.2652 9.60536 24.5196 9.79289 24.7071C9.98043 24.8946 10.2348 25 10.5 25Z" fill="black"/>
<path d="M10.5 19H25.5C25.7652 19 26.0196 18.8946 26.2071 18.7071C26.3946 18.5196 26.5 18.2652 26.5 18C26.5 17.7348 26.3946 17.4804 26.2071 17.2929C26.0196 17.1054 25.7652 17 25.5 17H10.5C10.2348 17 9.98043 17.1054 9.79289 17.2929C9.60536 17.4804 9.5 17.7348 9.5 18C9.5 18.2652 9.60536 18.5196 9.79289 18.7071C9.98043 18.8946 10.2348 19 10.5 19Z" fill="black"/>
</svg>
