<svg width="36" height="36" viewBox="0 0 36 36" fill="none" xmlns="http://www.w3.org/2000/svg">
<path d="M21 18C22.1046 18 23 17.1046 23 16C23 14.8954 22.1046 14 21 14C19.8954 14 19 14.8954 19 16C19 17.1046 19.8954 18 21 18Z" fill="black"/>
<path d="M16.82 30.24C16.9018 30.3225 16.9992 30.3881 17.1064 30.4328C17.2137 30.4775 17.3288 30.5005 17.445 30.5005C17.5612 30.5005 17.6763 30.4775 17.7835 30.4328C17.8908 30.3881 17.9882 30.3225 18.07 30.24L27.24 21.07C27.324 20.9883 27.3903 20.8902 27.4351 20.7819C27.4798 20.6735 27.5019 20.5572 27.5 20.44V10.44C27.5 10.3231 27.477 10.2074 27.4322 10.0994C27.3875 9.99144 27.322 9.89333 27.2393 9.81068C27.1567 9.72804 27.0586 9.66248 26.9506 9.61775C26.8426 9.57303 26.7269 9.55001 26.61 9.55001H16.61C16.4928 9.54813 16.3765 9.57022 16.2681 9.61493C16.1598 9.65965 16.0617 9.72603 15.98 9.81001L6.75999 18.93C6.67744 19.0118 6.61193 19.1092 6.56721 19.2164C6.5225 19.3237 6.49948 19.4388 6.49948 19.555C6.49948 19.6712 6.5225 19.7863 6.56721 19.8936C6.61193 20.0008 6.67744 20.0982 6.75999 20.18L16.82 30.24ZM17 11.5H25.5V20L17.44 28L8.99999 19.56L17 11.5Z" fill="black"/>
</svg>
