<svg width="36" height="36" viewBox="0 0 36 36" fill="none" xmlns="http://www.w3.org/2000/svg">
<path d="M18 31C18 31 27 22.59 27 16.39C27.0509 13.9516 26.1315 11.5927 24.4439 9.83188C22.7562 8.07108 20.4384 7.05249 18 7C15.5616 7.05249 13.2438 8.07108 11.5561 9.83188C9.86848 11.5927 8.94907 13.9516 9 16.39C9 22.59 18 31 18 31ZM18 9C19.9071 9.05496 21.7147 9.86359 23.0268 11.2488C24.3389 12.6339 25.0484 14.4827 25 16.39C25 20.05 20.74 25.3 18 28.18C15.26 25.3 11 20.05 11 16.39C10.9516 14.4827 11.6611 12.6339 12.9732 11.2488C14.2853 9.86359 16.0929 9.05496 18 9Z" fill="black"/>
<path d="M18 19C19.6569 19 21 17.6569 21 16C21 14.3431 19.6569 13 18 13C16.3431 13 15 14.3431 15 16C15 17.6569 16.3431 19 18 19Z" fill="black"/>
</svg>
