<svg width="36" height="36" viewBox="0 0 36 36" fill="none" xmlns="http://www.w3.org/2000/svg">
<path d="M10 29H26C26.7956 29 27.5587 28.6839 28.1213 28.1213C28.6839 27.5587 29 26.7956 29 26V10C29 9.20435 28.6839 8.44129 28.1213 7.87868C27.5587 7.31607 26.7956 7 26 7H10C9.20435 7 8.44129 7.31607 7.87868 7.87868C7.31607 8.44129 7 9.20435 7 10V26C7 26.7956 7.31607 27.5587 7.87868 28.1213C8.44129 28.6839 9.20435 29 10 29ZM9 10C9 9.73478 9.10536 9.48043 9.29289 9.29289C9.48043 9.10536 9.73478 9 10 9H26C26.2652 9 26.5196 9.10536 26.7071 9.29289C26.8946 9.48043 27 9.73478 27 10V26C27 26.2652 26.8946 26.5196 26.7071 26.7071C26.5196 26.8946 26.2652 27 26 27H10C9.73478 27 9.48043 26.8946 9.29289 26.7071C9.10536 26.5196 9 26.2652 9 26V10Z" fill="black"/>
<path d="M16.45 25H19.18V18.41H21.42V16C21.4195 15.9286 21.3907 15.8603 21.34 15.81C21.317 15.7852 21.2892 15.7653 21.2582 15.7515C21.2273 15.7378 21.1939 15.7304 21.16 15.73H19.16V14.46C19.16 13.85 19.31 13.54 20.09 13.54H21.5V11H19.56C19.1368 10.9832 18.7148 11.0562 18.3218 11.2142C17.9288 11.3723 17.5737 11.6117 17.2799 11.9168C16.9861 12.222 16.7603 12.5859 16.6172 12.9845C16.4742 13.3832 16.4172 13.8077 16.45 14.23V15.72H14.5V18.41H16.45V25Z" fill="black"/>
</svg>
