<svg width="36" height="36" viewBox="0 0 36 36" fill="none" xmlns="http://www.w3.org/2000/svg">
<path d="M18 21C19.6569 21 21 19.6568 21 18C21 16.3431 19.6569 15 18 15C16.3431 15 15 16.3431 15 18C15 19.6568 16.3431 21 18 21Z" fill="black"/>
<path d="M18 27C20.919 27.0004 23.7748 26.1491 26.2172 24.5505C28.6595 22.9518 30.5824 20.6753 31.75 18C30.5832 15.3236 28.6606 13.046 26.2182 11.4464C23.7758 9.8468 20.9196 8.99475 18 8.99475C15.0804 8.99475 12.2242 9.8468 9.78178 11.4464C7.33935 13.046 5.41684 15.3236 4.25 18C5.41762 20.6753 7.34047 22.9518 9.78284 24.5505C12.2252 26.1491 15.081 27.0004 18 27ZM18 11C20.38 10.9986 22.7147 11.6506 24.7496 12.885C26.7845 14.1193 28.4415 15.8886 29.54 18C28.4435 20.114 26.7873 21.8862 24.7523 23.1231C22.7172 24.3601 20.3815 25.0143 18 25.0143C15.6185 25.0143 13.2828 24.3601 11.2477 23.1231C9.21269 21.8862 7.55652 20.114 6.46 18C7.55847 15.8886 9.21547 14.1193 11.2504 12.885C13.2853 11.6506 15.62 10.9986 18 11Z" fill="black"/>
</svg>
