<svg width="78" height="36" viewBox="0 0 78 36" fill="none" xmlns="http://www.w3.org/2000/svg">
<path d="M51.75 13.38H45C44.9337 13.38 44.8701 13.4063 44.8232 13.4532C44.7763 13.5001 44.75 13.5637 44.75 13.63V15C44.7499 15.0333 44.7567 15.0662 44.77 15.0967C44.7833 15.1272 44.8028 15.1546 44.8272 15.1772C44.8517 15.1997 44.8805 15.217 44.912 15.2278C44.9435 15.2386 44.9768 15.2428 45.01 15.24H47.25V22.89C47.2526 22.9598 47.2822 23.026 47.3325 23.0745C47.3829 23.123 47.4501 23.15 47.52 23.15H49.24C49.309 23.15 49.3751 23.1226 49.4239 23.0738C49.4726 23.0251 49.5 22.9589 49.5 22.89V15.23H51.73C51.7952 15.2307 51.8584 15.2078 51.9081 15.1655C51.9577 15.1233 51.9904 15.0645 52 15V13.63C51.9975 13.5645 51.9704 13.5023 51.924 13.4559C51.8777 13.4096 51.8155 13.3825 51.75 13.38Z" fill="black"/>
<path d="M58.92 13.43C58.046 13.3026 57.1631 13.2458 56.28 13.26C54.58 13.26 53.07 13.68 53.07 16.07V20.43C53.07 22.82 54.57 23.26 56.26 23.26C57.1496 23.2685 58.0387 23.2117 58.92 23.09C59.1 23.09 59.18 22.98 59.18 22.81V21.59C59.18 21.521 59.1526 21.4549 59.1039 21.4061C59.0551 21.3574 58.989 21.33 58.92 21.33H56.15C55.53 21.33 55.31 21.12 55.31 20.43V19H58.81C58.8799 19 58.9471 18.973 58.9975 18.9245C59.0478 18.876 59.0774 18.8098 59.08 18.74V17.53C59.0774 17.4601 59.0478 17.394 58.9975 17.3455C58.9471 17.297 58.8799 17.2699 58.81 17.27H55.31V16.07C55.31 15.39 55.53 15.18 56.15 15.18H58.92C58.9899 15.1774 59.056 15.1478 59.1045 15.0974C59.153 15.0471 59.1801 14.9799 59.18 14.91V13.69C59.18 13.52 59.1 13.45 58.92 13.43Z" fill="black"/>
<path d="M66 18.16L68.86 13.63C68.8635 13.6034 68.8635 13.5765 68.86 13.55C68.8587 13.5263 68.8528 13.5032 68.8425 13.4818C68.8323 13.4605 68.8179 13.4413 68.8003 13.4255C68.7826 13.4098 68.762 13.3976 68.7397 13.3898C68.7173 13.382 68.6936 13.3786 68.67 13.38H66.67C66.5995 13.3903 66.533 13.4187 66.4769 13.4626C66.4208 13.5064 66.377 13.5641 66.35 13.63L64.72 16.28L63.04 13.63C62.96 13.51 62.86 13.38 62.71 13.38H60.65C60.6012 13.3771 60.5532 13.3932 60.5159 13.4249C60.4787 13.4566 60.4551 13.5014 60.45 13.55C60.4432 13.5762 60.4432 13.6037 60.45 13.63L63.32 18.13L60.48 22.88C60.4714 22.9094 60.4714 22.9406 60.48 22.97C60.48 23.06 60.54 23.14 60.68 23.14H62.62C62.76 23.14 62.85 23.04 62.95 22.88L64.59 20.07L66.4 22.94C66.43 23.0036 66.4785 23.0568 66.5391 23.0924C66.5998 23.1281 66.6698 23.1447 66.74 23.14H68.83C68.93 23.14 69 23.09 69 23.01C69.0102 22.9672 69.0102 22.9227 69 22.88L66 18.16Z" fill="black"/>
<path d="M43.53 13.41H41.62C41.5718 13.4094 41.525 13.4263 41.4882 13.4576C41.4515 13.4888 41.4272 13.5323 41.42 13.58L39.51 20.64C39.51 20.78 39.45 20.83 39.33 20.83C39.21 20.83 39.17 20.78 39.15 20.64L37.24 13.58C37.2309 13.5331 37.2062 13.4908 37.1698 13.4599C37.1335 13.429 37.0877 13.4114 37.04 13.41H35.16C35.1337 13.41 35.1077 13.4152 35.0835 13.4252C35.0592 13.4353 35.0372 13.45 35.0186 13.4686C35 13.4871 34.9853 13.5092 34.9752 13.5334C34.9652 13.5577 34.96 13.5837 34.96 13.61V13.66C34.96 13.66 37.29 21.75 37.32 21.83C37.4466 22.257 37.712 22.6296 38.0743 22.8886C38.4366 23.1476 38.875 23.2783 39.32 23.26C39.7637 23.2789 40.2011 23.1497 40.5632 22.8926C40.9254 22.6355 41.1916 22.2651 41.32 21.84L43.63 13.66C43.6399 13.637 43.6452 13.6123 43.6455 13.5873C43.6458 13.5623 43.6412 13.5374 43.6319 13.5142C43.6226 13.491 43.6089 13.4698 43.5914 13.4519C43.5739 13.434 43.553 13.4198 43.53 13.41Z" fill="black"/>
<path d="M32.1613 8.02185H14.6913C14.3813 8.02219 14.0767 8.10258 13.8069 8.25524C13.5371 8.40789 13.3113 8.62763 13.1514 8.89318C12.9914 9.15873 12.9028 9.46108 12.894 9.77094C12.8853 10.0808 12.9567 10.3877 13.1013 10.6619L14.8513 14.0219H11.6813C11.3822 14.0216 11.0944 14.1369 10.8783 14.3437C10.6621 14.5506 10.5342 14.8329 10.5213 15.1319C10.5229 15.3194 10.5674 15.5041 10.6513 15.6719L16.2713 26.3119C16.3428 26.4478 16.4406 26.5683 16.559 26.6662C16.6773 26.7641 16.814 26.8375 16.961 26.8821C17.108 26.9268 17.2624 26.9418 17.4152 26.9263C17.5681 26.9108 17.7163 26.8651 17.8513 26.7919C18.0596 26.6888 18.2283 26.5201 18.3313 26.3119L19.8613 23.4419L21.7713 27.0219C21.9246 27.3106 22.1535 27.5522 22.4336 27.7206C22.7137 27.8891 23.0345 27.9781 23.3613 27.9781C23.6882 27.9781 24.0089 27.8891 24.289 27.7206C24.5692 27.5522 24.7981 27.3106 24.9513 27.0219L33.7113 10.5419C33.8413 10.2767 33.902 9.98293 33.8879 9.68797C33.8738 9.393 33.7852 9.10641 33.6305 8.85488C33.4758 8.60335 33.2599 8.39506 33.0031 8.2494C32.7462 8.10375 32.4566 8.02547 32.1613 8.02185ZM24.3113 15.0219L20.5213 22.1719C20.4238 22.3528 20.2588 22.4879 20.0621 22.5478C19.8655 22.6077 19.6532 22.5876 19.4713 22.4918C19.3368 22.4173 19.2259 22.3064 19.1513 22.1719L15.4113 15.0919C15.3469 14.9742 15.3143 14.8418 15.3167 14.7078C15.3192 14.5737 15.3566 14.4426 15.4253 14.3274C15.494 14.2122 15.5916 14.117 15.7084 14.0511C15.8252 13.9852 15.9572 13.951 16.0913 13.9519H23.6313C23.8312 13.9545 24.0219 14.0357 24.1623 14.178C24.3027 14.3202 24.3813 14.512 24.3813 14.7119C24.381 14.8191 24.3571 14.9249 24.3113 15.0219Z" fill="black"/>
</svg>
