<svg width="36" height="36" viewBox="0 0 36 36" fill="none" xmlns="http://www.w3.org/2000/svg">
<path d="M21.51 21.71C21.716 21.6973 21.9095 21.6063 22.0507 21.4558C22.192 21.3052 22.2704 21.1064 22.27 20.9V18.73L20 18.16L18.7 19.46C18.2599 19.2016 17.8563 18.8855 17.5 18.52C17.1396 18.1568 16.8301 17.7464 16.58 17.3L17.84 16L17.27 13.71H15.1C14.8936 13.7096 14.6948 13.788 14.5442 13.9293C14.3937 14.0705 14.3027 14.264 14.29 14.47C14.2264 15.4269 14.3724 16.3862 14.7178 17.2809C15.0632 18.1756 15.5998 18.9841 16.29 19.65C16.9548 20.3564 17.7674 20.9073 18.6698 21.2634C19.5721 21.6195 20.5419 21.772 21.51 21.71Z" fill="black"/>
<path d="M12.17 27.33C14.4637 28.7623 17.2047 29.2996 19.8694 28.8391C22.5342 28.3787 24.9359 26.9527 26.616 24.8337C28.296 22.7147 29.1366 20.0511 28.9773 17.3515C28.8179 14.652 27.6698 12.1058 25.7521 10.1991C23.8344 8.2925 21.2815 7.15907 18.5811 7.01532C15.8807 6.87157 13.222 7.72757 11.1127 9.41984C9.00345 11.1121 7.59145 13.5221 7.14639 16.1894C6.70134 18.8568 7.25442 21.5946 8.7 23.88L7 29L12.17 27.33ZM18 8.99999C19.3941 8.9995 20.7692 9.32287 22.017 9.94461C23.2647 10.5663 24.351 11.4694 25.1902 12.5827C26.0293 13.6959 26.5983 14.9889 26.8524 16.3596C27.1065 17.7304 27.0387 19.1414 26.6543 20.4814C26.27 21.8215 25.5795 23.0539 24.6375 24.0815C23.6955 25.1092 22.5276 25.904 21.226 26.4032C19.9244 26.9024 18.5246 27.0924 17.137 26.9582C15.7493 26.824 14.4119 26.3693 13.23 25.63C12.9117 25.4327 12.5445 25.3288 12.17 25.33C11.9592 25.3281 11.7496 25.3619 11.55 25.43L10.15 25.88C10.9 23.59 10.85 23.44 10.36 22.77C9.50817 21.4071 9.03686 19.8409 8.99503 18.2342C8.9532 16.6275 9.34238 15.039 10.1221 13.6336C10.9019 12.2282 12.0438 11.0572 13.4291 10.2424C14.8145 9.42755 16.3928 8.99856 18 8.99999Z" fill="black"/>
</svg>
