<svg width="184" height="77" viewBox="0 0 184 77" fill="none" xmlns="http://www.w3.org/2000/svg">
<path d="M47.7385 43.1731C45.7241 44.1014 43.7645 45.1442 41.8692 46.2962C40.5609 47.2706 39.3197 48.332 38.1538 49.4731C35.6532 46.7121 32.5218 44.5969 29.0269 43.3077C28.745 43.2089 28.4451 43.1722 28.1477 43.2001C27.8503 43.2279 27.5625 43.3198 27.3038 43.4692C26.6577 44.2231 27.3038 44.7346 28.0038 45.1385C29.3765 45.9446 30.5649 47.0296 31.4924 48.3235C32.4199 49.6173 33.0658 51.0912 33.3885 52.65C34.2872 58.2474 34.132 63.9635 32.9308 69.5038C32.6272 70.8844 32.0236 72.1813 31.1628 73.3026C30.3021 74.4239 29.2052 75.3422 27.95 75.9923C29.756 76.2716 31.6008 76.1615 33.3607 75.6693C35.1206 75.1771 36.7548 74.3142 38.1538 73.1385C39.4747 74.2985 41.0256 75.1668 42.7051 75.6864C44.3845 76.206 46.1548 76.3653 47.9 76.1538C47.9 76.1538 47.9 75.8846 47.9 75.8577C46.5855 75.0437 45.4687 73.9473 44.6304 72.648C43.7922 71.3488 43.2537 69.8793 43.0538 68.3462C42.2735 63.4569 42.1648 58.484 42.7308 53.5654C42.9111 51.973 43.4446 50.4409 44.2923 49.0808C45.14 47.7208 46.2805 46.5671 47.6308 45.7038C48.0081 45.5059 48.353 45.2517 48.6538 44.95C48.8926 44.5464 49.0739 44.1114 49.1923 43.6577C48.6808 43.4423 48.0615 43.0115 47.7385 43.1731Z" fill="black"/>
<path d="M54.9269 35.2038C51.0769 32.9154 44.9654 35.2038 44.1577 39.3769C45.1283 39.8753 46.1934 40.1625 47.283 40.2196C48.3725 40.2767 49.4618 40.1024 50.4792 39.7082C51.4966 39.3139 52.4189 38.7087 53.1855 37.9324C53.9521 37.156 54.5456 36.2261 54.9269 35.2038Z" fill="black"/>
<path d="M32.1769 39.4038C31.2615 35.2846 25.6077 33.05 21.4077 35.1769C21.7974 36.1932 22.3947 37.1172 23.1613 37.8899C23.9279 38.6625 24.8472 39.267 25.8604 39.6647C26.8736 40.0624 27.9586 40.2446 29.0461 40.1997C30.1337 40.1548 31.1999 39.8837 32.1769 39.4038Z" fill="black"/>
<path d="M53.0692 42.2577C53.5987 43.0804 54.3073 43.7726 55.1421 44.2827C55.9769 44.7929 56.9163 45.1076 57.8899 45.2034C58.8635 45.2992 59.8462 45.1736 60.7644 44.836C61.6827 44.4984 62.5126 43.9575 63.1923 43.2538C62.6734 42.4184 61.9691 41.7135 61.134 41.194C60.2989 40.6744 59.3554 40.3541 58.3766 40.2577C57.3978 40.1614 56.4099 40.2917 55.4896 40.6385C54.5692 40.9853 53.7411 41.5394 53.0692 42.2577Z" fill="black"/>
<path d="M20.8423 30.1423C20.5816 29.206 20.1123 28.3409 19.4694 27.6119C18.8265 26.883 18.0268 26.3091 17.1304 25.9334C16.234 25.5578 15.2642 25.3901 14.2937 25.4429C13.3232 25.4957 12.3773 25.7677 11.5269 26.2385C11.7736 27.184 12.2351 28.0599 12.8755 28.798C13.5159 29.5361 14.3179 30.1166 15.2191 30.4943C16.1204 30.872 17.0966 31.0367 18.0719 30.9757C19.0471 30.9146 19.9952 30.6294 20.8423 30.1423Z" fill="black"/>
<path d="M23.2385 42.2846C22.5741 41.5663 21.7541 41.0096 20.8413 40.6573C19.9285 40.305 18.9471 40.1664 17.9724 40.2522C16.9978 40.338 16.0557 40.6458 15.2184 41.1521C14.3812 41.6584 13.671 42.3498 13.1423 43.1731C13.8145 43.8771 14.6364 44.4208 15.5472 44.764C16.458 45.1072 17.4344 45.2411 18.404 45.1558C19.3735 45.0705 20.3115 44.7681 21.1484 44.2711C21.9853 43.7741 22.6996 43.0952 23.2385 42.2846Z" fill="black"/>
<path d="M22.5385 22.3077C22.6012 21.3427 22.4419 20.3761 22.0728 19.4822C21.7037 18.5884 21.1346 17.791 20.4092 17.1514C19.6838 16.5119 18.8215 16.0471 17.8885 15.7928C16.9554 15.5385 15.9765 15.5015 15.0269 15.6846C14.9587 16.6511 15.1143 17.6202 15.4816 18.5168C15.8489 19.4133 16.418 20.2131 17.1447 20.8538C17.8715 21.4946 18.7362 21.9591 19.6717 22.2113C20.6071 22.4634 21.5882 22.4964 22.5385 22.3077Z" fill="black"/>
<path d="M64.8615 26.3192C64.0195 25.8313 63.0771 25.5425 62.1063 25.4748C61.1354 25.4071 60.162 25.5624 59.2604 25.9287C58.3589 26.2951 57.553 26.8628 56.9046 27.5884C56.2562 28.3141 55.7823 29.1784 55.5192 30.1154C56.3601 30.6088 57.3032 30.9021 58.2756 30.9726C59.248 31.043 60.2236 30.8888 61.1268 30.5218C62.03 30.1548 62.8367 29.5848 63.4843 28.8561C64.1319 28.1273 64.6032 27.2593 64.8615 26.3192Z" fill="black"/>
<path d="M61.3615 15.7115C60.4117 15.5188 59.4302 15.5479 58.4934 15.7964C57.5566 16.045 56.6898 16.5063 55.9604 17.1445C55.231 17.7828 54.6586 18.5807 54.2879 19.4762C53.9172 20.3717 53.7582 21.3407 53.8231 22.3077C54.7722 22.4948 55.7516 22.4617 56.686 22.211C57.6204 21.9603 58.4848 21.4987 59.2129 20.8617C59.9409 20.2246 60.5132 19.4291 60.8857 18.5363C61.2582 17.6435 61.421 16.6771 61.3615 15.7115Z" fill="black"/>
<path d="M39.7692 26.1846C38.8821 26.549 38.0881 27.1078 37.4457 27.8199C36.8034 28.5321 36.329 29.3793 36.0577 30.2991C35.7864 31.219 35.7251 32.188 35.8782 33.1347C36.0313 34.0815 36.3949 34.9818 36.9423 35.7692C37.8329 35.4089 38.6306 34.8522 39.2759 34.1406C39.9213 33.4289 40.3976 32.5807 40.6694 31.6593C40.9411 30.7379 41.0013 29.767 40.8455 28.819C40.6896 27.8711 40.3217 26.9705 39.7692 26.1846Z" fill="black"/>
<path d="M30.0769 6.85385C29.4221 7.54804 28.9389 8.38596 28.666 9.30047C28.3932 10.215 28.3384 11.1807 28.5058 12.1202C28.6733 13.0597 29.0585 13.947 29.6306 14.7109C30.2026 15.4748 30.9456 16.0941 31.8 16.5192C32.4549 15.825 32.9381 14.9871 33.2109 14.0726C33.4837 13.1581 33.5386 12.1924 33.3711 11.2529C33.2036 10.3133 32.8184 9.42609 32.2464 8.66219C31.6743 7.8983 30.9313 7.27898 30.0769 6.85385Z" fill="black"/>
<path d="M68.6846 35.15C68.044 34.4396 67.2482 33.8866 66.359 33.5339C65.4698 33.1812 64.5113 33.0384 63.5579 33.1165C62.6045 33.1947 61.6821 33.4917 60.8622 33.9845C60.0423 34.4772 59.3471 35.1525 58.8308 35.9577C59.4769 36.6583 60.2741 37.2024 61.1619 37.5489C62.0497 37.8953 63.0048 38.0349 63.9547 37.957C64.9045 37.8792 65.8241 37.5859 66.6437 37.0995C67.4633 36.6132 68.1612 35.9464 68.6846 35.15Z" fill="black"/>
<path d="M7.67692 35.1769C8.20482 35.9667 8.90378 36.6275 9.72194 37.1102C10.5401 37.5929 11.4565 37.8852 12.403 37.9654C13.3496 38.0455 14.302 37.9115 15.1897 37.5733C16.0774 37.2351 16.8776 36.7013 17.5308 36.0115C17.0203 35.2 16.3284 34.5181 15.5095 34.0196C14.6906 33.521 13.7671 33.2194 12.8119 33.1384C11.8566 33.0575 10.8955 33.1995 10.0044 33.5533C9.11338 33.907 8.31662 34.4628 7.67692 35.1769Z" fill="black"/>
<path d="M46.3654 6.8C45.5148 7.23144 44.7753 7.85354 44.2047 8.61779C43.634 9.38204 43.2476 10.2678 43.0757 11.2059C42.9037 12.1441 42.9507 13.1093 43.2131 14.0262C43.4755 14.9432 43.9462 15.7872 44.5885 16.4923C45.4474 16.0691 46.1954 15.4509 46.7727 14.6869C47.3501 13.923 47.7407 13.0347 47.9133 12.0928C48.086 11.151 48.036 10.1818 47.7672 9.2628C47.4984 8.34377 47.0183 7.50037 46.3654 6.8Z" fill="black"/>
<path d="M37.5885 13.1538C37.0326 13.9221 36.6582 14.8064 36.4934 15.7402C36.3285 16.674 36.3775 17.633 36.6366 18.5452C36.8957 19.4573 37.3583 20.2988 37.9895 21.0065C38.6207 21.7141 39.4041 22.2695 40.2808 22.6308C40.8315 21.8609 41.2016 20.9768 41.3636 20.0442C41.5257 19.1116 41.4755 18.1545 41.2169 17.2439C40.9582 16.3334 40.4977 15.4929 39.8695 14.7848C39.2413 14.0767 38.4617 13.5192 37.5885 13.1538Z" fill="black"/>
<path d="M34.25 25C34.4115 21.2577 31.5577 18.7 27.0885 18.6192C26.0654 21.9038 30.0769 25.4308 34.25 25Z" fill="black"/>
<path d="M31.4769 31.8654C31.4769 28.2846 28.0038 25.8615 23.7769 26.4808C23.8377 27.3801 24.0993 28.2544 24.5425 29.0393C24.9857 29.8243 25.5992 30.4998 26.3379 31.0164C27.0766 31.533 27.9217 31.8774 28.811 32.0243C29.7004 32.1712 30.6113 32.1169 31.4769 31.8654Z" fill="black"/>
<path d="M52.5577 26.5615C48.6539 25.6731 44.4808 28.5808 44.9115 31.9462C48.1154 33.0769 52.8538 30.0885 52.5577 26.5615Z" fill="black"/>
<path d="M50.6462 17.7846C46.9038 17.7846 43.4846 21.9038 44.8038 24.3C45.6417 24.3428 46.4785 24.1977 47.2531 23.8754C48.0276 23.553 48.7203 23.0616 49.2803 22.437C49.8404 21.8124 50.2537 21.0704 50.4901 20.2654C50.7264 19.4605 50.7797 18.6129 50.6462 17.7846Z" fill="black"/>
<path d="M8.53846 29.9808C8.21221 29.2443 7.71667 28.5954 7.09218 28.0867C6.46768 27.578 5.73189 27.2239 4.94469 27.0534C4.15749 26.8828 3.34115 26.9005 2.5621 27.1051C1.78306 27.3097 1.06334 27.6954 0.46154 28.2308C0.827366 28.9289 1.34201 29.5383 1.96912 30.0158C2.59623 30.4932 3.32053 30.8272 4.09086 30.9941C4.86118 31.161 5.65876 31.1568 6.42727 30.9817C7.19578 30.8066 7.91647 30.4649 8.53846 29.9808Z" fill="black"/>
<path d="M5.84616 17.8115C5.929 18.6016 6.19472 19.3615 6.62224 20.031C7.04977 20.7006 7.62735 21.2614 8.30923 21.6689C8.99111 22.0765 9.75854 22.3196 10.5507 22.3791C11.3429 22.4386 12.138 22.3127 12.8731 22.0115C12.8012 21.2165 12.5423 20.4497 12.1175 19.7738C11.6927 19.098 11.1141 18.5321 10.4289 18.1226C9.74367 17.713 8.97129 17.4713 8.17483 17.4173C7.37838 17.3632 6.58043 17.4983 5.84616 17.8115Z" fill="black"/>
<path d="M66.4231 40.5346C66.8357 41.1913 67.3854 41.751 68.0344 42.1756C68.6834 42.6002 69.4165 42.8795 70.1834 42.9946C70.9504 43.1096 71.7331 43.0576 72.4782 42.8422C73.2232 42.6267 73.9128 42.2528 74.5 41.7462C74.1145 41.0588 73.577 40.4687 72.9284 40.0209C72.2799 39.5731 71.5376 39.2795 70.7582 39.1626C69.9788 39.0457 69.183 39.1086 68.4317 39.3464C67.6803 39.5842 66.9933 39.9906 66.4231 40.5346Z" fill="black"/>
<path d="M1.67308 41.6654C2.237 42.2067 2.91522 42.6145 3.65774 42.8587C4.40025 43.103 5.18813 43.1775 5.96327 43.0767C6.7384 42.976 7.48104 42.7025 8.13642 42.2765C8.79181 41.8505 9.34322 41.2829 9.75 40.6154C9.19585 40.0543 8.5195 39.629 7.77377 39.3726C7.02805 39.1162 6.23314 39.0357 5.45115 39.1374C4.66916 39.2391 3.92126 39.5201 3.26588 39.9587C2.61049 40.3972 2.06536 40.9813 1.67308 41.6654Z" fill="black"/>
<path d="M35.4615 42.0962C35.4615 42.8102 35.7452 43.495 36.2501 43.9999C36.755 44.5048 37.4398 44.7885 38.1538 44.7885C38.8679 44.7885 39.5527 44.5048 40.0576 43.9999C40.5625 43.495 40.8462 42.8102 40.8462 42.0962C40.8462 41.3821 40.5625 40.6973 40.0576 40.1924C39.5527 39.6875 38.8679 39.4038 38.1538 39.4038C37.4504 39.4366 36.7844 39.7308 36.2865 40.2288C35.7885 40.7267 35.4943 41.3927 35.4615 42.0962Z" fill="black"/>
<path d="M70.4615 17.8115C69.7267 17.5113 68.9323 17.3852 68.1405 17.4432C67.3488 17.5012 66.5813 17.7417 65.8981 18.146C65.2148 18.5502 64.6344 19.1071 64.2024 19.773C63.7703 20.439 63.4983 21.196 63.4077 21.9846C64.1413 22.3028 64.9398 22.4427 65.7379 22.3928C66.536 22.3429 67.3109 22.1046 67.9991 21.6974C68.6873 21.2902 69.2693 20.7258 69.6973 20.0504C70.1253 19.375 70.3872 18.6077 70.4615 17.8115Z" fill="black"/>
<path d="M38.9346 0.76923C38.2836 1.24688 37.7541 1.87114 37.3892 2.59145C37.0243 3.31177 36.8341 4.1079 36.8341 4.91538C36.8341 5.72286 37.0243 6.519 37.3892 7.23931C37.7541 7.95963 38.2836 8.58389 38.9346 9.06154C39.5444 8.55628 40.0352 7.92274 40.3721 7.20608C40.709 6.48942 40.8836 5.70728 40.8836 4.91538C40.8836 4.12349 40.709 3.34135 40.3721 2.62469C40.0352 1.90803 39.5444 1.27449 38.9346 0.76923Z" fill="black"/>
<path d="M56.8115 8.36154C56.0251 8.39109 55.2558 8.59982 54.5623 8.97182C53.8688 9.34381 53.2693 9.86925 52.8097 10.5081C52.35 11.1469 52.0423 11.8822 51.91 12.658C51.7777 13.4338 51.8243 14.2296 52.0462 14.9846C52.8446 14.9887 53.6325 14.8017 54.344 14.4394C55.0555 14.0771 55.6701 13.5498 56.1364 12.9017C56.6028 12.2536 56.9074 11.5033 57.0248 10.7135C57.1422 9.92374 57.0691 9.11732 56.8115 8.36154Z" fill="black"/>
<path d="M51.0231 47.6154C51.0904 48.4037 51.3406 49.1656 51.7539 49.8403C52.1672 50.515 52.7321 51.0841 53.4038 51.5022C54.0755 51.9204 54.8354 52.1762 55.6233 52.2493C56.4111 52.3223 57.2052 52.2106 57.9423 51.9231C57.8805 51.1323 57.6337 50.3672 57.2218 49.6893C56.81 49.0115 56.2446 48.4399 55.5713 48.0207C54.8979 47.6015 54.1355 47.3464 53.3455 47.276C52.5554 47.2056 51.7599 47.3219 51.0231 47.6154Z" fill="black"/>
<path d="M19.55 8.28077C19.342 8.97368 19.2758 9.70139 19.3553 10.4205C19.4348 11.1395 19.6584 11.8352 20.0127 12.4659C20.367 13.0967 20.8448 13.6495 21.4176 14.0915C21.9903 14.5335 22.6462 14.8556 23.3462 15.0385C24.2346 15.2 24.5038 14.85 24.5577 13.9885C24.6464 12.5685 24.1694 11.1712 23.2311 10.1017C22.2928 9.03224 20.9694 8.37759 19.55 8.28077Z" fill="black"/>
<path d="M24.2346 47.2654C23.5421 47.1677 22.8369 47.2123 22.1622 47.3964C21.4876 47.5806 20.8575 47.9004 20.3107 48.3364C19.7638 48.7724 19.3116 49.3153 18.9818 49.932C18.6519 50.5487 18.4514 51.2262 18.3923 51.9231C19.7143 52.3972 21.1693 52.3359 22.4468 51.7525C23.7243 51.1691 24.7233 50.1096 25.2308 48.8C25.6346 47.7231 25.3115 47.3462 24.2346 47.2654Z" fill="black"/>
<path d="M67.7692 30.0077C68.3912 30.4918 69.1119 30.8335 69.8804 31.0086C70.6489 31.1837 71.4465 31.188 72.2168 31.0211C72.9872 30.8542 73.7115 30.5202 74.3386 30.0427C74.9657 29.5652 75.4803 28.9559 75.8462 28.2577C75.2493 27.7108 74.5299 27.315 73.7484 27.1036C72.9669 26.8922 72.1461 26.8713 71.3549 27.0427C70.5636 27.2142 69.8251 27.5729 69.2012 28.0888C68.5773 28.6047 68.0862 29.2627 67.7692 30.0077Z" fill="black"/>
<path d="M93.1846 44.4385C91.5495 44.4385 89.9813 43.7889 88.825 42.6327C87.6688 41.4764 87.0192 39.9082 87.0192 38.2731C87.0192 36.6379 87.6688 35.0697 88.825 33.9135C89.9813 32.7573 91.5495 32.1077 93.1846 32.1077C94.2234 32.1405 95.2427 32.3982 96.1723 32.863C97.1019 33.3278 97.9197 33.9887 98.5692 34.8L101.692 31.1115C99.3781 28.906 96.3007 27.6809 93.1039 27.6923C91.6896 27.6799 90.2868 27.9462 88.9755 28.476C87.6642 29.0058 86.47 29.7886 85.4613 30.7799C84.4525 31.7712 83.6488 32.9514 83.0962 34.2533C82.5436 35.5551 82.2528 36.9531 82.2404 38.3673C82.228 39.7815 82.4943 41.1844 83.0241 42.4957C83.5539 43.807 84.3367 45.0011 85.328 46.0099C86.3193 47.0187 87.4995 47.8223 88.8014 48.375C90.1032 48.9276 91.5012 49.2184 92.9154 49.2308C96.2107 49.1199 99.3358 47.7406 101.638 45.3808L98.4885 42.0692C97.0862 43.5049 95.1896 44.3521 93.1846 44.4385Z" fill="black"/>
<path d="M121.615 35.15C121.615 30.3846 118.358 27.6923 112.758 27.6923H103.335V48.8H108.719V42.8769H112.946L116.096 48.8H122.154L117.712 41.8269C118.944 41.2179 119.971 40.2607 120.665 39.0739C121.359 37.8871 121.689 36.5228 121.615 35.15ZM112.812 38.7577H108.692V32.0269H112.758C115.1 32.0269 116.446 33.1308 116.446 35.3385C116.446 37.5462 115.1 38.7577 112.758 38.7577H112.812Z" fill="black"/>
<path d="M138.092 40.05C138.158 40.6408 138.096 41.239 137.911 41.8038C137.725 42.3686 137.42 42.8869 137.017 43.3236C136.614 43.7602 136.121 44.105 135.572 44.3345C135.024 44.5641 134.433 44.673 133.838 44.6538C133.236 44.6788 132.635 44.5753 132.075 44.3502C131.515 44.1251 131.01 43.7835 130.592 43.3481C130.175 42.9127 129.854 42.3934 129.653 41.8248C129.451 41.2562 129.373 40.6512 129.423 40.05V27.6923H124.038V39.9423C124.038 45.5154 127.835 49.0423 133.785 49.0423C135.035 49.1718 136.299 49.0296 137.489 48.6253C138.679 48.221 139.768 47.5643 140.681 46.7001C141.593 45.8358 142.309 44.7845 142.777 43.6181C143.246 42.4518 143.457 41.1979 143.396 39.9423V27.6923H138.012L138.092 40.05Z" fill="black"/>
<path d="M156.615 44.4385C154.98 44.4385 153.412 43.7889 152.256 42.6327C151.1 41.4764 150.45 39.9082 150.45 38.2731C150.45 36.6379 151.1 35.0697 152.256 33.9135C153.412 32.7573 154.98 32.1077 156.615 32.1077C157.654 32.1405 158.674 32.3982 159.603 32.863C160.533 33.3278 161.35 33.9887 162 34.8L165.123 31.1115C162.789 28.8866 159.679 27.6599 156.454 27.6923C155.04 27.6799 153.637 27.9462 152.325 28.476C151.014 29.0058 149.82 29.7886 148.811 30.7799C147.802 31.7712 146.999 32.9514 146.446 34.2533C145.894 35.5551 145.603 36.9531 145.59 38.3673C145.578 39.7815 145.844 41.1844 146.374 42.4957C146.904 43.807 147.687 45.0011 148.678 46.0099C149.669 47.0187 150.85 47.8223 152.151 48.375C153.453 48.9276 154.851 49.2184 156.265 49.2308C159.561 49.1199 162.686 47.7406 164.988 45.3808L161.838 42.0692C160.456 43.4863 158.592 44.332 156.615 44.4385Z" fill="black"/>
<path d="M172.042 40.4269H182.112V36.2269H172.042V32.0269H183.215V27.8H166.685V48.9077H183.538V44.6808H172.042V40.4269Z" fill="black"/>
</svg>
